<svg viewBox="0 0 106 40" fill="none" xmlns="http://www.w3.org/2000/svg">
<path d="M91.3918 25.4336H90.3235V27.517H91.3918V25.4336Z" fill="#0091C1"/>
<path d="M91.3918 22.7925H90.3235V24.8759H91.3918V22.7925Z" fill="#0091C1"/>
<path d="M92.9984 21.5088H91.9301V24.8672H92.9984V21.5088Z" fill="#0091C1"/>
<path d="M92.9984 25.4336H91.9301V28.792H92.9984V25.4336Z" fill="#0091C1"/>
<path d="M94.6132 18.6919H93.5449V24.867H94.6132V18.6919Z" fill="#0091C1"/>
<path d="M94.6132 25.4336H93.5449V31.6087H94.6132V25.4336Z" fill="#0091C1"/>
<path d="M96.2281 25.4336H95.1599V29.267H96.2281V25.4336Z" fill="#0091C1"/>
<path d="M96.2281 21.0347H95.1599V24.8681H96.2281V21.0347Z" fill="#0091C1"/>
<path d="M97.8429 21.6089H96.7747V24.8673H97.8429V21.6089Z" fill="#0091C1"/>
<path d="M97.8429 25.4336H96.7747V28.692H97.8429V25.4336Z" fill="#0091C1"/>
<path d="M104.302 25.4336H103.234V27.517H104.302V25.4336Z" fill="#0091C1"/>
<path d="M104.302 22.7925H103.234V24.8759H104.302V22.7925Z" fill="#0091C1"/>
<path d="M101.073 25.4336H100.004V27.1003H101.073V25.4336Z" fill="#0091C1"/>
<path d="M101.073 23.209H100.004V24.8757H101.073V23.209Z" fill="#0091C1"/>
<path d="M102.687 25.4336H101.619V29.117H102.687V25.4336Z" fill="#0091C1"/>
<path d="M102.687 21.1841H101.619V24.8675H102.687V21.1841Z" fill="#0091C1"/>
<path d="M99.4578 25.4336H98.3895V26.5336H99.4578V25.4336Z" fill="#0091C1"/>
<path d="M99.4578 23.7661H98.3895V24.8661H99.4578V23.7661Z" fill="#0091C1"/>
<path d="M106 23.7661H104.932V24.8661H106V23.7661Z" fill="#0091C1"/>
<path d="M106 25.4336H104.932V26.5336H106V25.4336Z" fill="#0091C1"/>
<path d="M89.777 25.4336H88.7087V30.4254H89.777V25.4336Z" fill="#0091C1"/>
<path d="M89.777 19.8833H88.7087V24.8751H89.777V19.8833Z" fill="#0091C1"/>
<path d="M81.7028 25.4336H80.6345V31.667H81.7028V25.4336Z" fill="#0091C1"/>
<path d="M81.7028 18.6333H80.6345V24.8668H81.7028V18.6333Z" fill="#0091C1"/>
<path d="M83.3176 14.8086H82.2493V24.8755H83.3176V14.8086Z" fill="#0091C1"/>
<path d="M83.3176 25.4336H82.2493V35.5005H83.3176V25.4336Z" fill="#0091C1"/>
<path d="M84.9325 13.3838H83.8642V24.8757H84.9325V13.3838Z" fill="#0091C1"/>
<path d="M84.9325 25.4336H83.8642V36.9255H84.9325V25.4336Z" fill="#0091C1"/>
<path d="M86.5473 15.1001H85.479V24.8753H86.5473V15.1001Z" fill="#0091C1"/>
<path d="M86.5473 25.4336H85.479V35.2088H86.5473V25.4336Z" fill="#0091C1"/>
<path d="M88.1622 25.4336H87.0939V28.7337H88.1622V25.4336Z" fill="#0091C1"/>
<path d="M88.1622 21.5757H87.0939V24.8757H88.1622V21.5757Z" fill="#0091C1"/>
<path d="M15.5273 22.7925H14.459V24.8759H15.5273V22.7925Z" fill="#0091C1"/>
<path d="M15.5273 25.4336H14.459V27.517H15.5273V25.4336Z" fill="#0091C1"/>
<path d="M13.9125 25.4336H12.8442V28.792H13.9125V25.4336Z" fill="#0091C1"/>
<path d="M13.9125 21.5088H12.8442V24.8672H13.9125V21.5088Z" fill="#0091C1"/>
<path d="M12.306 25.4336H11.2377V31.6087H12.306V25.4336Z" fill="#0091C1"/>
<path d="M12.306 18.6919H11.2377V24.867H12.306V18.6919Z" fill="#0091C1"/>
<path d="M10.6911 21.0347H9.62283V24.8681H10.6911V21.0347Z" fill="#0091C1"/>
<path d="M10.6911 25.4336H9.62283V29.267H10.6911V25.4336Z" fill="#0091C1"/>
<path d="M9.07628 25.4336H8.008V28.692H9.07628V25.4336Z" fill="#0091C1"/>
<path d="M9.07628 21.6089H8.008V24.8673H9.07628V21.6089Z" fill="#0091C1"/>
<path d="M2.6169 22.7925H1.54861V24.8759H2.6169V22.7925Z" fill="#0091C1"/>
<path d="M2.6169 25.4336H1.54861V27.517H2.6169V25.4336Z" fill="#0091C1"/>
<path d="M5.84657 23.209H4.77829V24.8757H5.84657V23.209Z" fill="#0091C1"/>
<path d="M5.84657 25.4336H4.77829V27.1003H5.84657V25.4336Z" fill="#0091C1"/>
<path d="M4.23176 21.1841H3.16348V24.8675H4.23176V21.1841Z" fill="#0091C1"/>
<path d="M4.23176 25.4336H3.16348V29.117H4.23176V25.4336Z" fill="#0091C1"/>
<path d="M7.46141 23.7661H6.39313V24.8661H7.46141V23.7661Z" fill="#0091C1"/>
<path d="M7.46141 25.4336H6.39313V26.5336H7.46141V25.4336Z" fill="#0091C1"/>
<path d="M1.06828 25.4336H0V26.5336H1.06828V25.4336Z" fill="#0091C1"/>
<path d="M1.06828 23.7661H0V24.8661H1.06828V23.7661Z" fill="#0091C1"/>
<path d="M17.1421 19.8833H16.0739V24.8751H17.1421V19.8833Z" fill="#0091C1"/>
<path d="M17.1421 25.4336H16.0739V30.4254H17.1421V25.4336Z" fill="#0091C1"/>
<path d="M25.2164 18.6333H24.1482V24.8668H25.2164V18.6333Z" fill="#0091C1"/>
<path d="M25.2164 25.4336H24.1482V31.667H25.2164V25.4336Z" fill="#0091C1"/>
<path d="M23.6016 25.4336H22.5333V35.5005H23.6016V25.4336Z" fill="#0091C1"/>
<path d="M23.6016 14.8086H22.5333V24.8755H23.6016V14.8086Z" fill="#0091C1"/>
<path d="M21.9867 25.4336H20.9185V36.9255H21.9867V25.4336Z" fill="#0091C1"/>
<path d="M21.9867 13.3838H20.9185V24.8757H21.9867V13.3838Z" fill="#0091C1"/>
<path d="M20.3718 25.4336H19.3036V35.2088H20.3718V25.4336Z" fill="#0091C1"/>
<path d="M20.3718 15.1001H19.3036V24.8753H20.3718V15.1001Z" fill="#0091C1"/>
<path d="M18.757 21.5757H17.6887V24.8757H18.757V21.5757Z" fill="#0091C1"/>
<path d="M18.757 25.4336H17.6887V28.7337H18.757V25.4336Z" fill="#0091C1"/>
<path d="M30.5495 16.3833H26.6573V24.8668H30.5495V16.3833Z" fill="#D2A830"/>
<path d="M54.9047 20.2842H51.0125V24.8676H54.9047V20.2842Z" fill="#D2A830"/>
<path d="M59.774 10.1416H55.8818V24.8669H59.774V10.1416Z" fill="#D2A830"/>
<path d="M79.2681 15.6094H75.3759V24.8762H79.2681V15.6094Z" fill="#D2A830"/>
<path d="M35.4189 18.3921H31.5267V24.8755H35.4189V18.3921Z" fill="#D2A830"/>
<path d="M64.6517 3.90039H60.7596V24.8675H64.6517V3.90039Z" fill="#D2A830"/>
<path d="M69.521 0H65.6288V24.8671H69.521V0Z" fill="#D2A830"/>
<path d="M74.3905 8.5835H70.4983V24.8671H74.3905V8.5835Z" fill="#D2A830"/>
<path d="M50.0353 25.4336H46.1432V31.7087H50.0353V25.4336Z" fill="#A65B26"/>
<path d="M40.2883 25.4336H36.3961V32.9504H40.2883V25.4336Z" fill="#A65B26"/>
<path d="M45.1659 25.4336H41.2737V40.0005H45.1659V25.4336Z" fill="#A65B26"/>
</svg>
