<svg id="audio_icon" width="136" height="64" viewBox="0 0 136 64" fill="none" xmlns="http://www.w3.org/2000/svg" role="img" aria-hidden="true" focusable="false"><rect fill="#0091c1" x="113.22" y="36.73" width="1.29" height="2.5"></rect><rect fill="#0091c1" x="113.22" y="33.56" width="1.29" height="2.5"></rect><rect fill="#0091c1" x="115.16" y="32.02" width="1.29" height="4.03"></rect><rect fill="#0091c1" x="115.16" y="36.73" width="1.29" height="4.03"></rect><rect fill="#0091c1" x="117.11" y="28.64" width="1.29" height="7.41"></rect><rect fill="#0091c1" x="117.11" y="36.73" width="1.29" height="7.41"></rect><rect fill="#0091c1" x="119.06" y="36.73" width="1.29" height="4.6"></rect><rect fill="#0091c1" x="119.06" y="31.45" width="1.29" height="4.6"></rect><rect fill="#0091c1" x="121.01" y="32.14" width="1.29" height="3.91"></rect><rect fill="#0091c1" x="121.01" y="36.73" width="1.29" height="3.91"></rect><rect fill="#0091c1" x="128.81" y="36.73" width="1.29" height="2.5"></rect><rect fill="#0091c1" x="128.81" y="33.56" width="1.29" height="2.5"></rect><rect fill="#0091c1" x="124.91" y="36.73" width="1.29" height="2"></rect><rect fill="#0091c1" x="124.91" y="34.06" width="1.29" height="2"></rect><rect fill="#0091c1" x="126.86" y="36.73" width="1.29" height="4.42"></rect><rect fill="#0091c1" x="126.86" y="31.63" width="1.29" height="4.42"></rect><rect fill="#0091c1" x="122.96" y="36.73" width="1.29" height="1.32"></rect><rect fill="#0091c1" x="122.96" y="34.73" width="1.29" height="1.32"></rect><rect fill="#0091c1" x="130.86" y="34.73" width="1.29" height="1.32"></rect><rect fill="#0091c1" x="130.86" y="36.73" width="1.29" height="1.32"></rect><rect fill="#0091c1" x="111.27" y="36.73" width="1.29" height="5.99"></rect><rect fill="#0091c1" x="111.27" y="30.07" width="1.29" height="5.99"></rect><rect fill="#0091c1" x="101.52" y="36.73" width="1.29" height="7.48"></rect><rect fill="#0091c1" x="101.52" y="28.57" width="1.29" height="7.48"></rect><rect fill="#0091c1" x="103.47" y="23.98" width="1.29" height="12.08"></rect><rect fill="#0091c1" x="103.47" y="36.73" width="1.29" height="12.08"></rect><rect fill="#0091c1" x="105.42" y="22.27" width="1.29" height="13.79"></rect><rect fill="#0091c1" x="105.42" y="36.73" width="1.29" height="13.79"></rect><rect fill="#0091c1" x="107.37" y="24.33" width="1.29" height="11.73"></rect><rect fill="#0091c1" x="107.37" y="36.73" width="1.29" height="11.73"></rect><rect fill="#0091c1" x="109.32" y="36.73" width="1.29" height="3.96"></rect><rect fill="#0091c1" x="109.32" y="32.1" width="1.29" height="3.96"></rect><rect fill="#0091c1" x="21.61" y="33.56" width="1.29" height="2.5"></rect><rect fill="#0091c1" x="21.61" y="36.73" width="1.29" height="2.5"></rect><rect fill="#0091c1" x="19.66" y="36.73" width="1.29" height="4.03"></rect><rect fill="#0091c1" x="19.66" y="32.02" width="1.29" height="4.03"></rect><rect fill="#0091c1" x="17.72" y="36.73" width="1.29" height="7.41"></rect><rect fill="#0091c1" x="17.72" y="28.64" width="1.29" height="7.41"></rect><rect fill="#0091c1" x="15.77" y="31.45" width="1.29" height="4.6"></rect><rect fill="#0091c1" x="15.77" y="36.73" width="1.29" height="4.6"></rect><rect fill="#0091c1" x="13.82" y="36.73" width="1.29" height="3.91"></rect><rect fill="#0091c1" x="13.82" y="32.14" width="1.29" height="3.91"></rect><rect fill="#0091c1" x="6.02" y="33.56" width="1.29" height="2.5"></rect><rect fill="#0091c1" x="6.02" y="36.73" width="1.29" height="2.5"></rect><rect fill="#0091c1" x="9.92" y="34.06" width="1.29" height="2"></rect><rect fill="#0091c1" x="9.92" y="36.73" width="1.29" height="2"></rect><rect fill="#0091c1" x="7.97" y="31.63" width="1.29" height="4.42"></rect><rect fill="#0091c1" x="7.97" y="36.73" width="1.29" height="4.42"></rect><rect fill="#0091c1" x="11.87" y="34.73" width="1.29" height="1.32"></rect><rect fill="#0091c1" x="11.87" y="36.73" width="1.29" height="1.32"></rect><rect fill="#0091c1" x="4.15" y="36.73" width="1.29" height="1.32"></rect><rect fill="#0091c1" x="4.15" y="34.73" width="1.29" height="1.32"></rect><rect fill="#0091c1" x="23.56" y="30.07" width="1.29" height="5.99"></rect><rect fill="#0091c1" x="23.56" y="36.73" width="1.29" height="5.99"></rect><rect fill="#0091c1" x="33.31" y="28.57" width="1.29" height="7.48"></rect><rect fill="#0091c1" x="33.31" y="36.73" width="1.29" height="7.48"></rect><rect fill="#0091c1" x="31.36" y="36.73" width="1.29" height="12.08"></rect><rect fill="#0091c1" x="31.36" y="23.98" width="1.29" height="12.08"></rect><rect fill="#0091c1" x="29.41" y="36.73" width="1.29" height="13.79"></rect><rect fill="#0091c1" x="29.41" y="22.27" width="1.29" height="13.79"></rect><rect fill="#0091c1" x="27.46" y="36.73" width="1.29" height="11.73"></rect><rect fill="#0091c1" x="27.46" y="24.33" width="1.29" height="11.73"></rect><rect fill="#0091c1" x="25.51" y="32.1" width="1.29" height="3.96"></rect><rect fill="#0091c1" x="25.51" y="36.73" width="1.29" height="3.96"></rect><rect fill="#d2a830" x="36.34" y="25.87" width="4.7" height="10.18"></rect><rect fill="#d2a830" x="65.75" y="30.55" width="4.7" height="5.5"></rect><rect fill="#d2a830" x="71.63" y="18.38" width="4.7" height="17.67"></rect><rect fill="#d2a830" x="95.17" y="24.94" width="4.7" height="11.12"></rect><rect fill="#d2a830" x="42.22" y="28.28" width="4.7" height="7.78"></rect><rect fill="#d2a830" x="77.52" y="10.89" width="4.7" height="25.16"></rect><rect fill="#d2a830" x="83.4" y="6.21" width="4.7" height="29.84"></rect><rect fill="#d2a830" x="89.28" y="16.51" width="4.7" height="19.54"></rect><rect fill="#a65b26" x="59.87" y="36.73" width="4.7" height="7.53"></rect><rect fill="#a65b26" x="48.1" y="36.73" width="4.7" height="9.02"></rect><rect fill="#a65b26" x="53.99" y="36.73" width="4.7" height="17.48"></rect></svg>