<svg id="Layer_1" data-name="Layer 1" xmlns="http://www.w3.org/2000/svg" viewBox="0 0 48 40" role="img" aria-hidden="true" focusable="false"><path d="M31.109,24.884l-7.114,0-7.021,0L2,15.235,23.99,1.343V1.337l.005,0,0,0v.006l22,13.9Z" fill="#ddd9c7"></path><path d="M46,15.365l-.067-.02L24,1.49,2.067,15.341,1.9,15.3l.039-.172,22-13.893h.133l22,13.9.039.172Z" fill="#6e6e71"></path><path d="M39.112,5.529V19.718l-7.97,5.159-7.03,0-7.138.009L9.1,19.814,9.112,5.529Z" fill="#fff"></path><path d="M16.974,24.884l-1.74-1.121V18.13h4.892v6.748Z"></path><path d="M26.556,24.876l-4.894,0V11.321h4.894Z" fill="#bb7a2a"></path><path d="M31.109,24.884l-3.129-.008v-10.1h4.893v8.978Z" fill="#ea9e2c"></path><path d="M45.949,38.625l-43.923.013L2,15.235l14.974,9.649H31.109L46,15.24Z" fill="#eeede4"></path><path d="M2.026,38.763H2.018L1.9,38.638l0-.04L1.875,15.235l.066-.11.127.005,14.974,9.649.057.094-.04.1L2.338,38.521c.29-.008.772-.008,1.572-.009L45.629,38.5l-14.6-13.524h0l-.038-.09.027-.078.013-.014.019-.014,14.888-9.643.128,0,.066.11-.051,23.385v.007h0l-.01.04-.017.028-.011.014L46,38.738h0l-.052.011h0l-43.922.013Zm.1-23.3.026,22.889L16.77,24.9ZM31.312,24.9,45.825,38.34l.049-22.87Z" fill="#6e6e71"></path><rect x="16.974" y="24.755" width="14.166" height="0.25" fill="#6e6e71"></rect><path d="M9.089,19.807h0l-.125-.125L8.98,5.529,9.105,5.4h30l.125.125V19.587l-.125.125-.125-.125V5.654H9.23L9.214,19.682Z" fill="#6e6e71"></path></svg>