<svg id="newsletter_icon" xmlns="http://www.w3.org/2000/svg" viewBox="0 0 45 39"><defs><style>.cls-1{fill:#eeede4;stroke-width:0.25px;}.cls-1,.cls-2,.cls-3,.cls-8{stroke:#6e6e71;stroke-linejoin:round;}.cls-2{fill:#ddd9c7;stroke-width:0.24px;}.cls-3,.cls-4{fill:#fff;}.cls-3{stroke-width:0.25px;}.cls-5,.cls-8{fill:none;}.cls-6{fill:#ea9e2c;}.cls-7{fill:#bb7a2a;}.cls-8{stroke-width:0.22px;}</style></defs><title>Artboard 1</title><rect class="cls-1" x="0.52" y="14.91" width="44" height="23.4"/><polygon class="cls-2" points="44.51 14.85 22.52 1.01 22.52 1.01 22.52 1.01 22.51 1.01 22.51 1.01 0.52 14.85 15.5 24.55 22.52 24.55 29.54 24.55 44.51 14.85"/><line class="cls-3" x1="15.5" y1="24.55" x2="0.55" y2="38.31"/><line class="cls-3" x1="29.63" y1="24.55" x2="44.58" y2="38.31"/><polygon class="cls-4" points="7.51 5.18 7.51 19.38 15.47 24.53 22.49 24.53 29.51 24.53 37.47 19.38 37.47 5.18 7.51 5.18"/><polygon class="cls-5" points="29.15 5.21 15.82 5.21 7.5 5.21 7.5 10.44 7.5 19.39 14.17 23.71 14.17 16.98 18.75 16.98 18.75 24.55 20.19 24.55 20.19 10.43 24.78 10.43 24.78 24.55 26.22 24.55 26.22 13.76 30.8 13.76 30.8 23.71 37.47 19.39 37.47 10.44 37.47 5.21 29.15 5.21"/><polygon class="cls-6" points="18.75 23.48 18.75 16.98 14.17 16.98 14.17 22.33 15.89 23.48 18.75 23.48"/><rect class="cls-7" x="20.19" y="10.43" width="4.59" height="13.04"/><polygon class="cls-6" points="30.8 22.4 30.8 13.76 26.22 13.76 26.22 23.47 29.21 23.47 30.8 22.4"/><polygon class="cls-8" points="7.51 5.18 7.51 19.38 15.47 24.53 22.49 24.53 29.51 24.53 37.47 19.38 37.47 5.18 7.51 5.18"/></svg>