<svg width="43" height="36" viewBox="0 0 43 36" fill="none" xmlns="http://www.w3.org/2000/svg">
<g clip-path="url(#clip0)">
<path d="M27.9356 22.6859H21.1405H14.4314L0.114746 13.4293L21.1309 0.10554V0.0959473V0.10554L42.1567 13.4389L27.9356 22.6859Z" fill="#D4D4D4"/>
<path d="M42.1666 13.554L42.0997 13.5348L21.1409 0.239808L0.182003 13.5348L0.0195312 13.4964L0.0577599 13.3333L21.0835 0H21.2078L42.2335 13.3333L42.2718 13.4964L42.1666 13.554Z" fill="#6E6E71"/>
<path d="M35.5907 4.11523V17.7267L27.9737 22.6764H21.255L14.4312 22.686L6.90967 17.8227L6.91922 4.11523H35.5907Z" fill="white"/>
<path d="M14.4315 22.6858L12.7686 21.6114V16.2109H17.442V22.6858H14.4315Z" fill="#333132"/>
<path d="M23.587 22.6763H18.9136V9.67871H23.587V22.6763Z" fill="#78265C"/>
<path d="M27.9357 22.6859L24.9443 22.6763V12.988H29.6273V21.6019L27.9357 22.6859Z" fill="#D2AE2E"/>
<path d="M42.1185 35.8656L0.143418 35.8752L0.114746 13.4292L14.4218 22.6858H27.9356L42.1663 13.4292L42.1185 35.8656Z" fill="#F8F8F8"/>
<path d="M0.143357 36L0.0191143 35.8753V35.8369L0 13.4292L0.0669001 13.3237L0.191143 13.3333L14.4982 22.5899L14.5556 22.6762L14.5173 22.7722L0.439629 35.7698C0.716787 35.7602 1.17553 35.7602 1.9401 35.7602L41.8126 35.7506L27.8591 22.7818L27.8209 22.6954L27.8496 22.6187L27.8591 22.6091L27.8782 22.5995L42.1089 13.3525H42.2331L42.3 13.458L42.2522 35.8753V35.8849L42.2427 35.9233L42.2235 35.952L42.214 35.9616L42.1758 35.9808L42.128 35.9904L0.143357 36ZM0.238929 13.6499L0.267601 35.6067L14.2402 22.6954L0.238929 13.6499ZM28.1363 22.6954L42.0037 35.5875L42.0515 13.6499L28.1363 22.6954Z" fill="#6E6E71"/>
<path d="M27.9736 22.5613H14.4312V22.8011H27.9736V22.5613Z" fill="#6E6E71"/>
<path d="M6.89056 17.813L6.77588 17.6979L6.78544 4.11518L6.90012 3.99048H35.5716L35.6863 4.10559V17.5924L35.5716 17.7075L35.4569 17.5924V4.23988H7.02436L7.01481 17.6979L6.89056 17.813Z" fill="#6E6E71"/>
</g>
<defs>
<clipPath id="clip0">
<rect width="42.3" height="36" fill="white"/>
</clipPath>
</defs>
</svg>
