<?xml version="1.0" encoding="UTF-8"?><svg id="a" xmlns="http://www.w3.org/2000/svg" viewBox="0 0 210.29 92">
<defs>
<style>
.b{fill:none;stroke:#000;stroke-width:3px;}
</style>
</defs>
<g>
<path d="M194.8,22.06l4.67,4.67c.74-.87,1.38-1.83,1.91-2.85l-9.9-4.1c.49-.6,.81-1.35,.9-2.16l9.9,4.1c.35-1.07,.58-2.2,.67-3.36h-6.6c.05-.38,.09-.77,.09-1.17s-.04-.79-.09-1.17h6.6c-.09-1.16-.32-2.29-.67-3.36l-9.9,4.1c-.09-.82-.41-1.56-.9-2.16l9.9-4.1c-.53-1.03-1.17-1.98-1.91-2.85l-4.67,4.67c-.47-.63-1.03-1.19-1.66-1.66l4.66-4.67c-.87-.74-1.83-1.38-2.85-1.91l-4.1,9.9c-.6-.49-1.35-.81-2.16-.9l4.1-9.9c-1.07-.35-2.2-.58-3.36-.67v6.6h0c-.38-.06-.77-.09-1.17-.09s-.79,.04-1.17,.09V2.5c-1.17,.09-2.29,.32-3.36,.67l4.1,9.9c-.82,.09-1.56,.41-2.16,.9l-4.1-9.9c-1.03,.53-1.98,1.17-2.85,1.91l4.66,4.67c-.63,.47-1.19,1.03-1.66,1.66h0l-4.67-4.67c-.74,.87-1.38,1.83-1.91,2.85l9.9,4.1c-.49,.6-.81,1.35-.9,2.16l-9.89-4.1c-.35,1.07-.58,2.2-.67,3.36h6.6c-.05,.38-.09,.77-.09,1.17s.04,.79,.09,1.17h-6.6c.09,1.16,.32,2.29,.67,3.36l9.89-4.1c.09,.82,.41,1.56,.9,2.16l-9.9,4.1c.53,1.03,1.17,1.98,1.91,2.85l4.67-4.67c.47,.63,1.03,1.19,1.66,1.66h0l-4.66,4.67c.87,.74,1.83,1.38,2.85,1.91l4.1-9.9c.6,.49,1.35,.81,2.16,.9l-4.1,9.9c1.07,.35,2.2,.58,3.36,.67v-6.6c.38,.06,.77,.09,1.17,.09s.79-.04,1.17-.09h0v6.6c1.17-.09,2.29-.32,3.36-.67l-4.1-9.9c.82-.09,1.56-.41,2.16-.9l4.1,9.9c1.03-.52,1.98-1.17,2.85-1.91l-4.66-4.67h0c.63-.47,1.19-1.03,1.66-1.66h0Z"/>
<path d="M17.74,17.96c1.23,0,2.45,0,3.68-.04,.29,0,.37-.12,.37-.64,0-.91-.58-2-1.87-2-.99,0-1.98,.91-2.18,2.68h0Zm5.68,4.1c-1.15,1.65-2.61,2.06-3.15,2.06-2.53,0-4.1-1.98-4.1-4.36,0-1.13,.37-2.45,1.26-3.48,.74-.89,1.93-1.58,3.13-1.58,1.58,0,2.92,1.48,2.92,2.9,0,.51-.06,.56-.41,.64-.29,.06-2.84,.27-5.43,.35-.06,3.19,1.91,4.26,3.42,4.26,.64,0,1.34-.29,2.16-.99l.21,.21h0Z"/>
<path d="M27.82,24.11l-2.61-7.45c-.39-1.09-.43-1.21-1.46-1.42v-.31h4.14v.31l-.84,.23c-.39,.1-.49,.29-.29,.89l1.77,5.29h.04c.76-1.98,1.54-4.2,2.49-6.61h.23l2.65,6.61h.04c.49-1.63,1.15-3.79,1.48-5.27,.14-.64,.08-.84-.29-.93l-.99-.21v-.31h3.62v.31c-1.01,.25-1.15,.39-1.54,1.3-.6,1.38-1.71,4.8-2.63,7.57h-.29l-2.7-6.56c-.82,2.14-1.67,4.16-2.53,6.56h-.29Z"/>
<path d="M44.84,17.49h1.53c1.05,0,1.77-.1,2.35-.53,.88-.7,1.19-1.71,1.19-2.84,0-2.26-1.41-3.21-3.21-3.21-.66,0-1.51,.09-1.67,.15-.12,.04-.18,.14-.18,.56v5.88h0Zm0,3.4c0,2.22,.16,2.47,1.85,2.7v.29h-5.35v-.29c1.73-.23,1.89-.47,1.89-2.7v-7.41c0-2.22-.16-2.47-1.81-2.7v-.29h5.69c1.3,0,2.45,.19,3.23,.7,.82,.51,1.36,1.44,1.36,2.63,0,1.65-1.05,2.92-2.78,3.62,.35,.62,1.19,2.02,1.81,2.92,.68,.99,1.23,1.69,1.85,2.41,.58,.66,.9,.86,1.52,.99l-.02,.25c-.25,0-.6-.02-1.23-.08-1.32-.14-2.06-.56-2.9-1.75-.82-1.17-1.54-2.49-2.16-3.52-.37-.62-.76-.76-1.48-.76h-1.47v2.98h0Z"/>
<path d="M55.34,17.96c1.23,0,2.45,0,3.68-.04,.29,0,.37-.12,.37-.64,0-.91-.58-2-1.87-2-.99,0-1.98,.91-2.18,2.68h0Zm5.68,4.1c-1.15,1.65-2.61,2.06-3.15,2.06-2.53,0-4.1-1.98-4.1-4.36,0-1.13,.37-2.45,1.26-3.48,.74-.89,1.93-1.58,3.13-1.58,1.58,0,2.92,1.48,2.92,2.9,0,.51-.06,.56-.41,.64-.29,.06-2.84,.27-5.43,.35-.06,3.19,1.91,4.26,3.42,4.26,.64,0,1.34-.29,2.16-.99l.21,.21h0Z"/>
<path d="M67.52,17.22c-.68-1.44-1.42-2.02-2.3-2.02s-1.36,.58-1.36,1.42c0,1.01,.91,1.5,1.85,1.89,1.56,.64,2.49,1.32,2.49,2.76,0,1.85-1.79,2.84-3.35,2.84-1.01,0-1.96-.43-2.35-.76-.1-.31-.27-1.44-.25-2.28l.31-.04c.37,1.15,1.44,2.57,2.63,2.57,.86,0,1.58-.47,1.58-1.58,0-1.01-.64-1.46-1.71-1.96-1.26-.58-2.49-1.17-2.49-2.65s1.28-2.72,3.11-2.72c.7,0,1.28,.16,1.71,.35,.18,.47,.39,1.71,.43,2.06l-.31,.12h0Z"/><path d="M71.02,17.96c1.23,0,2.45,0,3.68-.04,.29,0,.37-.12,.37-.64,0-.91-.58-2-1.87-2-.99,0-1.98,.91-2.18,2.68h0Zm5.68,4.1c-1.15,1.65-2.61,2.06-3.15,2.06-2.53,0-4.1-1.98-4.1-4.36,0-1.13,.37-2.45,1.26-3.48,.74-.89,1.93-1.58,3.13-1.58,1.58,0,2.92,1.48,2.92,2.9,0,.51-.06,.56-.41,.64-.29,.06-2.84,.27-5.43,.35-.06,3.19,1.91,4.26,3.42,4.26,.64,0,1.34-.29,2.16-.99l.21,.21h0Z"/><path d="M82.79,18.8c-.45,.19-1.67,.74-2.06,.95-.8,.39-1.15,.8-1.15,1.56,0,1.15,.78,1.71,1.46,1.71,.49,0,1.17-.25,1.75-.72v-3.5h0Zm1.5,3c0,.76,.27,1.15,.58,1.15,.16,0,.49-.02,.88-.23l.16,.31-1.98,1.07c-.72-.12-1.03-.82-1.15-1.38-.84,.58-1.96,1.38-2.39,1.38-1.52,0-2.49-1.23-2.49-2.37,0-.95,.49-1.61,1.58-2.02,1.07-.41,2.59-.99,3.29-1.4v-.84c0-1.23-.56-2.04-1.61-2.04-.51,0-.84,.14-1.03,.33-.25,.21-.49,.54-.7,1.48-.04,.25-.21,.39-.47,.39-.33,0-.86-.29-.86-.72,0-.23,.21-.51,.66-.84,.49-.37,1.73-1.13,3.15-1.4,.54,0,1.17,.18,1.54,.47,.74,.58,.82,1.28,.82,2.02v4.63h0Z"/><path d="M89.19,22.01c0,1.13,.1,1.34,1.69,1.56v.29h-4.65v-.29c1.32-.23,1.42-.43,1.42-1.56v-4.75c0-1.21-.04-1.34-1.36-1.5v-.29c.86-.16,1.87-.41,2.9-.82v2.22h.04c.47-.88,1.44-2.18,2.41-2.18,.62,0,1.09,.56,1.09,.97,0,.33-.21,.76-.62,.95-.23,.1-.37,.06-.47-.02-.29-.25-.51-.41-.88-.41-.47,0-.99,.35-1.56,1.42v4.42h0Z"/><path d="M100.01,15.24c.14,.12,.21,.25,.21,.45,0,.45-.41,.91-.68,.91-.08,0-.16-.02-.31-.14-.8-.72-1.48-.93-2.22-.93-1.19,0-2.41,.93-2.41,3.33,0,3.19,2.24,3.99,3.23,3.99,.91,0,1.42-.23,2.49-1.23l.21,.18c-.86,1.36-2.12,2.3-3.29,2.3-2.59,0-4.24-2.08-4.24-4.22,0-1.61,.7-3,1.89-3.93,1.32-1.03,2.68-1.28,3.33-1.28,.47,0,1.34,.18,1.79,.56h0Z"/><path d="M103.65,16.17c.72-.68,1.83-1.44,2.96-1.48,1.73-.04,2.8,1.05,2.8,3v4.32c0,1.13,.1,1.34,1.32,1.56v.29h-4.26v-.29c1.3-.23,1.4-.43,1.4-1.56v-3.75c0-1.54-.54-2.53-2.12-2.53-.82,.04-1.56,.35-2.1,.91v5.37c0,1.13,.1,1.34,1.36,1.56v.29h-4.24v-.29c1.23-.23,1.34-.43,1.34-1.56V11.74c0-1.23-.04-1.36-1.4-1.54v-.23c.91-.19,2.24-.51,2.94-.72v6.91h0Z"/><path d="M125.32,13.86c-.82-2.37-2.16-3.23-4.24-3.23-3.13,0-4.8,3.03-4.8,6.26,0,3.97,1.78,6.83,4.82,6.83,2.39,0,3.46-1.34,4.67-3.5l.31,.06c-.27,.89-.72,2.53-1.05,3.31-.58,.14-2.43,.58-3.87,.58-4.66,0-6.9-3.54-6.9-6.81,0-4.24,3.14-7.18,7.27-7.18,1.77,0,3.15,.41,3.73,.54,.16,1.13,.25,2.04,.37,3.11l-.31,.04h0Z"/><path d="M128.8,17.96c1.23,0,2.45,0,3.68-.04,.29,0,.37-.12,.37-.64,0-.91-.58-2-1.87-2-.99,0-1.98,.91-2.18,2.68h0Zm5.68,4.1c-1.15,1.65-2.61,2.06-3.15,2.06-2.53,0-4.1-1.98-4.1-4.36,0-1.13,.37-2.45,1.26-3.48,.74-.89,1.93-1.58,3.13-1.58,1.58,0,2.92,1.48,2.92,2.9,0,.51-.06,.56-.41,.64-.29,.06-2.84,.27-5.43,.35-.06,3.19,1.91,4.26,3.42,4.26,.64,0,1.34-.29,2.16-.99l.21,.21h0Z"/><path d="M138.28,16.27c.41-.27,.95-.66,1.48-.99,.62-.37,1.03-.6,1.67-.6,1.71,0,2.61,1.11,2.61,2.72v4.61c0,1.13,.1,1.34,1.26,1.56v.29h-4.3v-.29c1.4-.23,1.5-.43,1.5-1.56v-3.95c0-1.19-.37-2.33-2-2.33-.76,0-1.54,.45-2.22,.99v5.29c0,1.13,.1,1.34,1.38,1.56v.29h-4.4v-.29c1.38-.23,1.48-.43,1.48-1.56v-4.75c0-1.21-.04-1.34-1.36-1.5v-.29c.86-.16,1.87-.41,2.9-.82v1.63h0Z"/><path d="M148.43,21.15c0,1.63,.78,1.96,1.36,1.96,.33,0,.88-.18,1.32-.43l.14,.29-1.69,.97c-.27,.14-.45,.18-.56,.18-1.46,0-2.12-.84-2.12-2.41v-6.09h-1.5l-.06-.21,.64-.47h.93v-1.19l1.28-1.56,.27,.1v2.65h2.45c.16,.23,.1,.45-.14,.68h-2.3v5.54h0Z"/><path d="M153.21,17.96c1.23,0,2.45,0,3.68-.04,.29,0,.37-.12,.37-.64,0-.91-.58-2-1.87-2-.99,0-1.98,.91-2.18,2.68h0Zm5.68,4.1c-1.15,1.65-2.61,2.06-3.15,2.06-2.53,0-4.1-1.98-4.1-4.36,0-1.13,.37-2.45,1.26-3.48,.74-.89,1.93-1.58,3.13-1.58,1.58,0,2.92,1.48,2.92,2.9,0,.51-.06,.56-.41,.64-.29,.06-2.84,.27-5.43,.35-.06,3.19,1.91,4.26,3.42,4.26,.64,0,1.34-.29,2.16-.99l.21,.21h0Z"/><path d="M162.69,22.01c0,1.13,.1,1.34,1.69,1.56v.29h-4.65v-.29c1.32-.23,1.42-.43,1.42-1.56v-4.75c0-1.21-.04-1.34-1.36-1.5v-.29c.86-.16,1.87-.41,2.9-.82v2.22h.04c.47-.88,1.44-2.18,2.41-2.18,.62,0,1.09,.56,1.09,.97,0,.33-.21,.76-.62,.95-.23,.1-.37,.06-.47-.02-.29-.25-.51-.41-.88-.41-.47,0-.99,.35-1.56,1.42v4.42h0Z"/><path d="M9.07,17.45c.27,.1,1.1,.29,1.86,.29,1.51,0,3.25-.74,3.25-3.5,0-2.37-1.26-3.33-3.35-3.33-.56,0-1.4,.1-1.56,.16-.12,.04-.19,.14-.19,.55v5.84h0Zm0,3.44c0,2.22,.16,2.47,2.16,2.7v.29H5.57v-.29c1.69-.23,1.85-.47,1.85-2.7v-7.41c0-2.22-.16-2.47-1.75-2.7v-.29h5.67c1.38,0,2.57,.23,3.44,.86,.8,.58,1.3,1.52,1.3,2.82,0,2.45-2.04,3.89-4.01,4.14-.33,.04-.88,.04-1.05,.04l-1.94-.47v3h0Z"/></g><g><path d="M75.1,88.23c-2.91,0-5.2-.85-6.89-2.54-1.69-1.7-2.53-4.11-2.53-7.23,0-2.08,.32-4.07,.96-5.97,.64-1.9,1.53-3.59,2.68-5.07,1.15-1.48,2.59-2.69,4.35-3.63,1.75-.94,3.7-1.41,5.84-1.41,2.38,0,4.18,.5,5.42,1.51,1.24,1.01,1.86,2.27,1.86,3.8,0,1.15-.27,2.15-.81,3.01-.54,.86-1.35,1.3-2.43,1.3-.9,0-1.57-.22-2.02-.67-.45-.45-.67-.94-.67-1.49s.18-1.25,.54-2.17c.36-.92,.64-1.66,.86-2.22-.18-.45-.59-.77-1.22-.98-.63-.21-1.29-.31-1.97-.31-2.26,0-4.21,1.32-5.84,3.95-1.64,2.63-2.45,5.86-2.45,9.68,0,2.36,.53,4.23,1.58,5.62,1.06,1.39,2.48,2.08,4.28,2.08,1.61,0,3.05-.43,4.3-1.3,1.26-.86,2.46-2.08,3.61-3.66l1.42,1.05c-1.15,1.81-2.7,3.38-4.67,4.7-1.97,1.32-4.03,1.98-6.19,1.98Z"/><path d="M113.04,72.17c0,1.96-.33,3.92-1,5.89-.66,1.96-1.63,3.68-2.89,5.16-1.28,1.53-2.82,2.76-4.62,3.68-1.8,.92-3.89,1.38-6.27,1.38-2.76,0-5-.89-6.71-2.67-1.72-1.78-2.58-4.17-2.58-7.18,0-2.21,.37-4.27,1.1-6.19,.73-1.91,1.71-3.59,2.94-5.04,1.25-1.45,2.79-2.61,4.62-3.5,1.84-.89,3.82-1.33,5.97-1.33,2.96,0,5.27,.9,6.94,2.71,1.67,1.8,2.5,4.17,2.5,7.1Zm-5.08-.95c0-2.36-.42-4.13-1.26-5.31-.84-1.18-2.05-1.77-3.63-1.77-1.38,0-2.68,.42-3.9,1.27-1.22,.85-2.27,2.23-3.15,4.14-.68,1.45-1.18,3.06-1.49,4.83-.32,1.77-.47,3.4-.47,4.9,0,2.38,.41,4.18,1.23,5.4,.82,1.22,2.06,1.83,3.72,1.83,1.48,0,2.79-.47,3.94-1.4,1.15-.93,2.08-2.11,2.79-3.54,.71-1.4,1.26-3,1.64-4.8,.38-1.8,.57-3.65,.57-5.55Z"/><path d="M132.41,84.11h-.17c-.37,.32-.84,.73-1.42,1.23-.58,.51-1.19,.95-1.82,1.33-.8,.5-1.53,.88-2.2,1.15-.67,.27-1.5,.4-2.48,.4-2.41,0-4.29-.87-5.66-2.61-1.37-1.74-2.05-4.1-2.05-7.1,0-2.09,.37-4.12,1.11-6.06,.74-1.94,1.75-3.67,3.03-5.19,1.25-1.46,2.75-2.65,4.5-3.55,1.75-.91,3.59-1.36,5.5-1.36,1.15,0,2.29,.15,3.41,.45s2.06,.67,2.79,1.1l1.95-8.47c.1-.45,.17-.8,.21-1.05s.06-.52,.06-.82c0-.6-.12-1.05-.36-1.37-.24-.32-.58-.55-1.01-.7-.4-.15-.95-.25-1.64-.3s-1.33-.11-1.89-.17l.35-1.52,10.09-.55,.25,.37-6.91,29.87c-.13,.55-.27,1.18-.41,1.88-.14,.71-.21,1.24-.21,1.61,0,.95,.2,1.59,.6,1.93,.4,.34,1.07,.51,2.02,.51,.32,0,.76-.05,1.35-.15s1.03-.21,1.35-.32l-.37,1.59c-1.4,.63-2.55,1.07-3.47,1.32-.92,.25-1.76,.37-2.55,.37-1.2,0-2.15-.31-2.86-.93s-1.06-1.59-1.06-2.91Zm3.54-15.89c-.03-.48-.16-.95-.37-1.41-.22-.46-.49-.87-.82-1.24-.38-.42-.88-.76-1.48-1.03-.61-.27-1.33-.41-2.16-.41-1.28,0-2.49,.4-3.63,1.2-1.14,.8-2.14,1.86-3,3.19-.83,1.28-1.5,2.82-2,4.63-.5,1.8-.75,3.61-.75,5.43,0,1.01,.06,1.91,.17,2.69,.12,.78,.34,1.51,.67,2.17,.32,.62,.76,1.1,1.34,1.46,.58,.36,1.35,.54,2.32,.54,.91,0,1.91-.27,2.98-.82,1.07-.55,2.26-1.51,3.57-2.87l3.16-13.52Z"/><path d="M167.29,67.56c0,1.76-.55,3.28-1.66,4.54s-2.71,2.27-4.82,3.02c-1.54,.57-3.11,1.02-4.68,1.37-1.58,.35-3.32,.64-5.23,.87,0,2.63,.49,4.63,1.46,6.02,.97,1.39,2.4,2.08,4.27,2.08,1.66,0,3.13-.41,4.4-1.25,1.27-.83,2.52-2.07,3.75-3.71l1.42,1.05c-1.33,2.03-2.99,3.65-4.98,4.86-1.99,1.21-4.06,1.82-6.2,1.82-2.94,0-5.19-.82-6.74-2.47-1.55-1.65-2.33-3.98-2.33-7.01,0-2.09,.33-4.09,.98-6,.66-1.9,1.62-3.65,2.88-5.22,1.23-1.55,2.74-2.79,4.52-3.74,1.79-.95,3.76-1.42,5.92-1.42,2.39,0,4.16,.49,5.32,1.46,1.15,.97,1.73,2.22,1.73,3.73Zm-4.58-.61c0-.65-.09-1.16-.27-1.53s-.42-.65-.7-.83c-.3-.2-.61-.32-.95-.37s-.67-.07-1.02-.07c-1.99,0-3.83,1.09-5.52,3.28s-2.75,4.91-3.2,8.18c1.16-.17,2.47-.4,3.94-.71,1.46-.31,2.67-.71,3.64-1.21,1.38-.71,2.4-1.63,3.08-2.75,.67-1.12,1.01-2.45,1.01-3.99Z"/><path d="M39.47,65.8c0,3.37-.66,6.43-1.97,9.18-1.31,2.75-3.03,5.03-5.16,6.84-2.21,1.88-4.67,3.3-7.39,4.26-2.72,.96-5.56,1.45-8.53,1.45H1l.37-1.64c.43,0,1.04-.04,1.83-.12,.79-.08,1.35-.19,1.68-.32,.6-.23,1.05-.56,1.36-.98,.31-.42,.52-.93,.64-1.51l5.88-25.44c.05-.2,.1-.42,.14-.66,.04-.24,.06-.44,.06-.59,0-.37-.06-.69-.19-.96s-.38-.5-.76-.69c-.43-.2-.96-.37-1.59-.51-.63-.14-1.11-.24-1.45-.29l.37-1.64h14.97c1.49,0,3.12,.21,4.88,.64,1.76,.42,3.4,1.15,4.93,2.18,1.61,1.08,2.9,2.52,3.87,4.32,.97,1.8,1.46,3.97,1.46,6.49Zm-5.85,.03c0-3.72-1-6.62-2.99-8.68-2-2.06-4.65-3.09-7.96-3.09-.68,0-1.39,.01-2.12,.04-.73,.02-1.31,.05-1.72,.06l-6.32,27.45c-.05,.23-.09,.46-.12,.67s-.05,.42-.05,.62c0,1,.42,1.7,1.25,2.11,.83,.41,2.19,.61,4.09,.61,2.48,0,4.73-.56,6.77-1.69,2.04-1.13,3.73-2.63,5.07-4.51,1.38-1.94,2.41-4.06,3.09-6.36,.68-2.29,1.02-4.7,1.02-7.23Z"/><path d="M63.01,67.56c0,1.76-.55,3.28-1.66,4.54-1.1,1.26-2.71,2.27-4.82,3.02-1.54,.57-3.11,1.02-4.68,1.37-1.58,.35-3.32,.64-5.23,.87,0,2.63,.49,4.63,1.46,6.02,.97,1.39,2.4,2.08,4.27,2.08,1.66,0,3.13-.41,4.4-1.25,1.27-.83,2.52-2.07,3.75-3.71l1.42,1.05c-1.33,2.03-2.99,3.65-4.98,4.86-1.99,1.21-4.06,1.82-6.2,1.82-2.94,0-5.19-.82-6.74-2.47-1.55-1.65-2.33-3.98-2.33-7.01,0-2.09,.33-4.09,.98-6,.66-1.9,1.62-3.65,2.88-5.22,1.23-1.55,2.74-2.79,4.52-3.74,1.79-.95,3.76-1.42,5.92-1.42,2.39,0,4.16,.49,5.32,1.46,1.15,.97,1.73,2.22,1.73,3.73Zm-4.58-.61c0-.65-.09-1.16-.27-1.53-.18-.37-.42-.65-.7-.83-.3-.2-.61-.32-.95-.37-.33-.05-.67-.07-1.02-.07-1.99,0-3.83,1.09-5.52,3.28-1.69,2.19-2.75,4.91-3.2,8.18,1.16-.17,2.47-.4,3.94-.71,1.46-.31,2.67-.71,3.64-1.21,1.38-.71,2.4-1.63,3.08-2.75,.67-1.12,1.01-2.45,1.01-3.99Z"/><path d="M185.83,84.11h-.17c-.37,.32-.84,.73-1.42,1.23-.58,.51-1.19,.95-1.82,1.33-.8,.5-1.53,.88-2.2,1.15-.67,.27-1.5,.4-2.48,.4-2.41,0-4.29-.87-5.66-2.61-1.37-1.74-2.05-4.1-2.05-7.1,0-2.09,.37-4.12,1.11-6.06,.74-1.94,1.75-3.67,3.03-5.19,1.25-1.46,2.75-2.65,4.5-3.55,1.75-.91,3.59-1.36,5.5-1.36,1.15,0,2.29,.15,3.41,.45,1.13,.3,2.06,.67,2.79,1.1l1.95-8.47c.1-.45,.17-.8,.21-1.05s.06-.52,.06-.82c0-.6-.12-1.05-.36-1.37-.24-.32-.58-.55-1.01-.7-.4-.15-.95-.25-1.64-.3s-1.33-.11-1.89-.17l.35-1.52,10.09-.55,.25,.37-6.91,29.87c-.13,.55-.27,1.18-.41,1.88-.14,.71-.21,1.24-.21,1.61,0,.95,.2,1.59,.6,1.93,.4,.34,1.07,.51,2.02,.51,.32,0,.76-.05,1.35-.15s1.03-.21,1.35-.32l-.37,1.59c-1.4,.63-2.55,1.07-3.47,1.32-.92,.25-1.76,.37-2.55,.37-1.2,0-2.15-.31-2.86-.93s-1.06-1.59-1.06-2.91Zm3.54-15.89c-.03-.48-.16-.95-.37-1.41-.22-.46-.49-.87-.82-1.24-.38-.42-.88-.76-1.48-1.03s-1.33-.41-2.16-.41c-1.28,0-2.49,.4-3.63,1.2-1.14,.8-2.14,1.86-3,3.19-.83,1.28-1.5,2.82-2,4.63-.5,1.8-.75,3.61-.75,5.43,0,1.01,.06,1.91,.17,2.69,.12,.78,.34,1.51,.67,2.17,.32,.62,.76,1.1,1.34,1.46,.58,.36,1.35,.54,2.32,.54,.91,0,1.91-.27,2.98-.82,1.07-.55,2.26-1.51,3.57-2.87l3.16-13.52Z"/></g><path class="b" d="M109.01,66.71l-16,18.5"/></svg>
