<svg id="logo" xmlns="http://www.w3.org/2000/svg" viewBox="0 0 305 46">
	<title>Pew Research Center Logo</title>
	<path class="dark" d="M33.65,30.49l7.15,7.15a22.62,22.62,0,0,0,2.92-4.37L28.55,27a6.31,6.31,0,0,0,1.37-3.32L45.09,30a22.44,22.44,0,0,0,1-5.16H36a12.68,12.68,0,0,0,.14-1.8A12.49,12.49,0,0,0,36,21.2H46.12a22.45,22.45,0,0,0-1-5.16L29.93,22.33A6.32,6.32,0,0,0,28.55,19l15.17-6.28A22.61,22.61,0,0,0,40.8,8.36l-7.15,7.15A12.59,12.59,0,0,0,31.11,13l7.15-7.15A22.57,22.57,0,0,0,33.89,2.9L27.6,18.07a6.32,6.32,0,0,0-3.32-1.38L30.57,1.53a22.47,22.47,0,0,0-5.16-1V10.61h0a11.3,11.3,0,0,0-3.59,0V0.5a22.47,22.47,0,0,0-5.16,1l6.28,15.17a6.32,6.32,0,0,0-3.32,1.38L13.35,2.9A22.61,22.61,0,0,0,9,5.82L16.13,13a12.55,12.55,0,0,0-2.54,2.54h0L6.44,8.36a22.59,22.59,0,0,0-2.92,4.37L18.69,19a6.32,6.32,0,0,0-1.38,3.32L2.14,16a22.52,22.52,0,0,0-1,5.16H11.23a11.4,11.4,0,0,0,0,3.6H1.12a22.52,22.52,0,0,0,1,5.16l15.16-6.28A6.32,6.32,0,0,0,18.69,27L3.52,33.27a22.67,22.67,0,0,0,2.92,4.37l7.15-7.15A12.56,12.56,0,0,0,16.13,33h0L9,40.18a22.57,22.57,0,0,0,4.37,2.92l6.28-15.17a6.31,6.31,0,0,0,3.32,1.38L16.67,44.47a22.47,22.47,0,0,0,5.16,1V35.39a11.3,11.3,0,0,0,3.59,0h0V45.5a22.47,22.47,0,0,0,5.16-1L24.29,29.31a6.31,6.31,0,0,0,3.32-1.38L33.89,43.1a22.57,22.57,0,0,0,4.37-2.92L31.11,33h0A12.55,12.55,0,0,0,33.65,30.49Z"/><path class="dark" d="M84.73,30.48a6.74,6.74,0,0,1-4.83,3.15c-3.88,0-6.28-3-6.28-6.69a8.29,8.29,0,0,1,1.92-5.33,6.6,6.6,0,0,1,4.79-2.43,4.69,4.69,0,0,1,4.48,4.45c0,0.79-.09.85-0.63,1s-4.35.41-8.33,0.54c-0.1,4.89,2.93,6.53,5.24,6.53a5.22,5.22,0,0,0,3.31-1.51ZM76,24.2c1.89,0,3.75,0,5.65-.06,0.44,0,.57-0.19.57-1a2.89,2.89,0,0,0-2.87-3.06C77.86,20.1,76.34,21.49,76,24.2Z"/><path class="dark" d="M91.48,33.63l-4-11.42c-0.6-1.67-.66-1.86-2.24-2.18V19.56h6.34V20l-1.29.35c-0.6.16-.76,0.44-0.44,1.36l2.71,8.11h0.06c1.17-3,2.37-6.43,3.82-10.12h0.35l4.07,10.12h0.06c0.76-2.49,1.77-5.8,2.27-8.07,0.22-1,.13-1.29-0.44-1.42L101.23,20V19.56h5.55V20c-1.55.38-1.77,0.6-2.37,2-0.91,2.11-2.62,7.35-4,11.61H99.93L95.8,23.57c-1.26,3.28-2.55,6.37-3.88,10.06H91.48Z"/><path class="dark" d="M117.56,28.68c0,3.41.25,3.78,2.84,4.13v0.44h-8.2V32.81c2.65-.35,2.9-0.73,2.9-4.13V17.32c0-3.41-.25-3.78-2.78-4.13V12.75H121a9.24,9.24,0,0,1,5,1.07,4.59,4.59,0,0,1,2.08,4c0,2.52-1.61,4.48-4.26,5.55,0.54,0.95,1.83,3.09,2.78,4.48a41.11,41.11,0,0,0,2.84,3.69,3.67,3.67,0,0,0,2.33,1.51l0,0.38c-0.38,0-.91,0-1.89-0.13a5.45,5.45,0,0,1-4.45-2.68c-1.26-1.8-2.37-3.82-3.31-5.39a2.2,2.2,0,0,0-2.27-1.17h-2.25v4.57Zm0-5.2h2.34a5.7,5.7,0,0,0,3.6-.82,5.21,5.21,0,0,0,1.83-4.35c0-3.47-2.16-4.92-4.92-4.92a12.87,12.87,0,0,0-2.56.24c-0.19.06-.28,0.22-0.28,0.85v9Z"/><path class="dark" d="M142.36,30.48a6.74,6.74,0,0,1-4.83,3.15c-3.88,0-6.28-3-6.28-6.69a8.29,8.29,0,0,1,1.92-5.33A6.6,6.6,0,0,1,138,19.18a4.69,4.69,0,0,1,4.48,4.45c0,0.79-.09.85-0.63,1s-4.35.41-8.33,0.54c-0.09,4.89,2.93,6.53,5.24,6.53A5.22,5.22,0,0,0,142,30.16Zm-8.71-6.28c1.89,0,3.75,0,5.65-.06,0.44,0,.57-0.19.57-1A2.89,2.89,0,0,0,137,20.1C135.48,20.1,134,21.49,133.65,24.2Z"/><path class="dark" d="M152.32,23.06c-1-2.21-2.18-3.09-3.53-3.09a2,2,0,0,0-2.08,2.18c0,1.55,1.39,2.3,2.84,2.9,2.4,1,3.82,2,3.82,4.23,0,2.84-2.74,4.35-5.14,4.35a6.18,6.18,0,0,1-3.6-1.17,14.59,14.59,0,0,1-.38-3.5l0.47-.06c0.57,1.77,2.21,3.94,4,3.94a2.23,2.23,0,0,0,2.43-2.43c0-1.55-1-2.24-2.62-3-1.92-.88-3.82-1.8-3.82-4.07s2-4.16,4.76-4.16a6.6,6.6,0,0,1,2.62.54,19.54,19.54,0,0,1,.66,3.15Z"/><path class="dark" d="M166.39,30.48a6.74,6.74,0,0,1-4.83,3.15c-3.88,0-6.28-3-6.28-6.69a8.29,8.29,0,0,1,1.92-5.33A6.6,6.6,0,0,1,162,19.18a4.69,4.69,0,0,1,4.48,4.45c0,0.79-.09.85-0.63,1s-4.35.41-8.33,0.54c-0.1,4.89,2.93,6.53,5.24,6.53a5.22,5.22,0,0,0,3.31-1.51Zm-8.7-6.28c1.89,0,3.75,0,5.65-.06,0.44,0,.57-0.19.57-1A2.89,2.89,0,0,0,161,20.1C159.51,20.1,158,21.49,157.68,24.2Z"/><path class="dark" d="M178,30.1c0,1.17.41,1.77,0.88,1.77a2.87,2.87,0,0,0,1.36-.35L180.52,32l-3,1.64a2.45,2.45,0,0,1-1.77-2.11c-1.29.88-3,2.11-3.66,2.11A3.75,3.75,0,0,1,168.25,30c0-1.45.76-2.46,2.43-3.09a45,45,0,0,0,5-2.14V23.47c0-1.89-.85-3.12-2.46-3.12a2.17,2.17,0,0,0-1.58.5,3.65,3.65,0,0,0-1.07,2.27,0.67,0.67,0,0,1-.73.6,1.35,1.35,0,0,1-1.32-1.1,2,2,0,0,1,1-1.29,12.65,12.65,0,0,1,4.83-2.14,4.2,4.2,0,0,1,2.37.73A3.45,3.45,0,0,1,178,23v7.1Zm-2.3-4.6c-0.69.28-2.55,1.14-3.15,1.45-1.23.6-1.77,1.23-1.77,2.4A2.37,2.37,0,0,0,173,32a4.57,4.57,0,0,0,2.68-1.1V25.49Z"/><path class="dark" d="M185.53,30.41c0,1.74.16,2.05,2.59,2.4v0.44H181V32.81c2-.35,2.18-0.66,2.18-2.4V23.13c0-1.86-.06-2.05-2.08-2.3V20.38a24.08,24.08,0,0,0,4.45-1.26v3.41h0.06c0.73-1.36,2.21-3.34,3.69-3.34A1.71,1.71,0,0,1,191,20.67a1.66,1.66,0,0,1-.95,1.45,0.64,0.64,0,0,1-.73,0,2,2,0,0,0-1.36-.63c-0.73,0-1.51.54-2.4,2.18v6.78Z"/><path class="dark" d="M202.12,20a0.81,0.81,0,0,1,.31.69,1.47,1.47,0,0,1-1,1.39,0.68,0.68,0,0,1-.47-0.22,4.76,4.76,0,0,0-3.41-1.42c-1.83,0-3.69,1.42-3.69,5.11,0,4.89,3.44,6.12,5,6.12s2.18-.35,3.82-1.89l0.31,0.28c-1.32,2.08-3.25,3.53-5,3.53a6.42,6.42,0,0,1-6.5-6.47,7.49,7.49,0,0,1,2.9-6,8.82,8.82,0,0,1,5.11-2A5.08,5.08,0,0,1,202.12,20Z"/><path class="dark" d="M207.7,21.45a7.65,7.65,0,0,1,4.54-2.27c2.65-.06,4.29,1.61,4.29,4.6v6.62c0,1.74.16,2.05,2,2.4v0.44H212V32.81c2-.35,2.14-0.66,2.14-2.4V24.67c0-2.37-.82-3.88-3.25-3.88a4.72,4.72,0,0,0-3.22,1.39v8.23c0,1.74.16,2.05,2.08,2.4v0.44h-6.5V32.81c1.89-.35,2.05-0.66,2.05-2.4V14.67c0-1.89-.06-2.08-2.14-2.37V12c1.39-.28,3.44-0.79,4.51-1.1v10.6Z"/><path class="dark" d="M240.91,17.92c-1.26-3.63-3.31-5-6.5-5-4.8,0-7.35,4.64-7.35,9.59,0,6.09,2.73,10.47,7.38,10.47,3.66,0,5.3-2.05,7.16-5.36l0.47,0.09c-0.41,1.36-1.1,3.88-1.61,5.08a28.34,28.34,0,0,1-5.93.88A10.15,10.15,0,0,1,224,23.28c0-6.5,4.81-11,11.14-11a23.52,23.52,0,0,1,5.71.82c0.25,1.73.38,3.12,0.57,4.76Z"/><path class="dark" d="M254.95,30.48a6.74,6.74,0,0,1-4.83,3.15c-3.88,0-6.28-3-6.28-6.69a8.29,8.29,0,0,1,1.92-5.33,6.6,6.6,0,0,1,4.79-2.43A4.69,4.69,0,0,1,255,23.63c0,0.79-.09.85-0.63,1s-4.35.41-8.33,0.54C246,30,249,31.67,251.32,31.67a5.22,5.22,0,0,0,3.31-1.51Zm-8.71-6.28c1.89,0,3.75,0,5.65-.06,0.44,0,.57-0.19.57-1a2.89,2.89,0,0,0-2.87-3.06C248.07,20.1,246.56,21.49,246.24,24.2Z"/><path class="dark" d="M260.77,21.61c0.63-.41,1.45-1,2.27-1.51a4.6,4.6,0,0,1,2.55-.91c2.62,0,4,1.7,4,4.16v7.07c0,1.74.16,2.05,1.92,2.4v0.44h-6.59V32.81c2.14-.35,2.3-0.66,2.3-2.4V24.36c0-1.83-.57-3.56-3.06-3.56a5.92,5.92,0,0,0-3.41,1.51v8.11c0,1.74.16,2.05,2.11,2.4v0.44h-6.75V32.81c2.11-.35,2.27-0.66,2.27-2.4V23.13c0-1.86-.06-2.05-2.08-2.3V20.38a24.08,24.08,0,0,0,4.45-1.26v2.49Z"/><path class="dark" d="M276.32,29.09c0,2.49,1.2,3,2.08,3a4.86,4.86,0,0,0,2-.66l0.22,0.44-2.59,1.48a2,2,0,0,1-.85.28c-2.24,0-3.25-1.29-3.25-3.69V20.6h-2.3l-0.09-.32,1-.73H274V17.73l2-2.4,0.41,0.16v4.07h3.75a0.72,0.72,0,0,1-.22,1h-3.53v8.48Z"/><path class="dark" d="M292.36,30.48a6.74,6.74,0,0,1-4.83,3.15c-3.88,0-6.28-3-6.28-6.69a8.29,8.29,0,0,1,1.92-5.33A6.6,6.6,0,0,1,288,19.18a4.69,4.69,0,0,1,4.48,4.45c0,0.79-.09.85-0.63,1s-4.35.41-8.33,0.54c-0.1,4.89,2.93,6.53,5.24,6.53A5.22,5.22,0,0,0,292,30.16Zm-8.71-6.28c1.89,0,3.75,0,5.65-.06,0.44,0,.57-0.19.57-1A2.89,2.89,0,0,0,287,20.1C285.48,20.1,284,21.49,283.65,24.2Z"/><path class="dark" d="M298.17,30.41c0,1.74.16,2.05,2.59,2.4v0.44h-7.13V32.81c2-.35,2.18-0.66,2.18-2.4V23.13c0-1.86-.06-2.05-2.08-2.3V20.38a24.08,24.08,0,0,0,4.45-1.26v3.41h0.06c0.73-1.36,2.21-3.34,3.69-3.34a1.71,1.71,0,0,1,1.67,1.48,1.66,1.66,0,0,1-.95,1.45,0.64,0.64,0,0,1-.73,0,2,2,0,0,0-1.36-.63c-0.73,0-1.51.54-2.4,2.18v6.78Z"/><path class="dark" d="M62.74,28.68c0,3.41.25,3.78,3.31,4.13v0.44H57.38V32.81c2.59-.35,2.84-0.73,2.84-4.13V17.32c0-3.41-.25-3.78-2.68-4.13V12.75h8.68a8.79,8.79,0,0,1,5.27,1.33,5,5,0,0,1,2,4.32c0,3.75-3.12,6-6.15,6.34a16,16,0,0,1-1.6.06l-3-.72v4.6Zm0-5.26a9.93,9.93,0,0,0,2.85.44c2.32,0,5-1.14,5-5.36,0-3.63-1.92-5.11-5.14-5.11a12,12,0,0,0-2.4.25c-0.19.06-.29,0.21-0.29,0.84v8.95Z"/>

	<path class="light" d="M26,11.88A10.35,10.35,0,0,1,28.07,14l5.85-5.85A18.6,18.6,0,0,0,31.83,6Z"/><path class="light" d="M37.44,25.81L25,20.66a5.18,5.18,0,0,1-1.13,2.72l12.42,5.15A18.37,18.37,0,0,0,37.44,25.81Z"/><path class="light" d="M38.27,18.64H30a10.25,10.25,0,0,1,.12,1.48A10.44,10.44,0,0,1,30,21.59h8.27c0-.49.06-1,0.06-1.47S38.31,19.13,38.27,18.64Z"/><path class="light" d="M18.36,9.95a9.25,9.25,0,0,1,3,0h0V1.68c-0.49,0-1-.06-1.48-0.06s-1,0-1.47.06V9.95Z"/><path class="light" d="M3.36,28.53l12.42-5.15a5.19,5.19,0,0,1-1.13-2.72L2.23,25.81A18.37,18.37,0,0,0,3.36,28.53Z"/><path class="light" d="M28.25,3.64a18.44,18.44,0,0,0-2.72-1.13L20.38,14.94a5.17,5.17,0,0,1,2.72,1.13Z"/><path class="light" d="M37.44,14.42a18.38,18.38,0,0,0-1.13-2.72L23.88,16.84A5.18,5.18,0,0,1,25,19.56Z"/><path class="light" d="M25.53,37.72a18.45,18.45,0,0,0,2.72-1.13L23.11,24.16a5.18,5.18,0,0,1-2.72,1.13Z"/><path class="light" d="M9.66,21.59a9.35,9.35,0,0,1,0-2.95H1.4c0,0.49-.06,1-0.06,1.47s0,1,.06,1.47H9.66Z"/><path class="light" d="M15.78,16.84L3.36,11.69a18.42,18.42,0,0,0-1.13,2.72l12.42,5.15A5.19,5.19,0,0,1,15.78,16.84Z"/><path class="light" d="M13.68,28.35h0a10.33,10.33,0,0,1-2.08-2.08L5.75,32.11a18.58,18.58,0,0,0,2.08,2.08Z"/><path class="light" d="M28.07,26.26A10.31,10.31,0,0,1,26,28.35h0l5.85,5.85a18.58,18.58,0,0,0,2.08-2.08Z"/><path class="light" d="M21.31,30.28h0a10.27,10.27,0,0,1-1.48.12,10.41,10.41,0,0,1-1.47-.12v8.27c0.49,0,1,.06,1.47.06s1,0,1.48-.06V30.28Z"/><path class="light" d="M14.14,37.72l5.15-12.42a5.19,5.19,0,0,1-2.72-1.13L11.42,36.59A18.41,18.41,0,0,0,14.14,37.72Z"/><path class="light" d="M11.6,14h0a10.31,10.31,0,0,1,2.09-2.09L7.84,6A18.63,18.63,0,0,0,5.75,8.12Z"/><path class="light" d="M14.14,2.51a18.38,18.38,0,0,0-2.72,1.13l5.15,12.42a5.17,5.17,0,0,1,2.72-1.13Z"/><path class="light" d="M71.63,26.26a5.54,5.54,0,0,1-4,2.59c-3.19,0-5.16-2.49-5.16-5.5A6.81,6.81,0,0,1,64.08,19,5.43,5.43,0,0,1,68,17a3.85,3.85,0,0,1,3.68,3.66c0,0.65-.08.7-0.52,0.8s-3.58.34-6.85,0.44c-0.08,4,2.41,5.37,4.3,5.37A4.29,4.29,0,0,0,71.37,26ZM64.47,21.1c1.56,0,3.09,0,4.64-.05,0.36,0,.47-0.16.47-0.8a2.37,2.37,0,0,0-2.36-2.52C66,17.73,64.73,18.87,64.47,21.1Z"/><path class="light" d="M77.69,28.85l-3.29-9.39c-0.49-1.37-.54-1.53-1.84-1.79V17.29h5.21v0.39L76.7,18c-0.49.13-.62,0.36-0.36,1.12l2.23,6.66h0.05c1-2.49,1.95-5.29,3.14-8.32H82l3.35,8.32h0.05c0.62-2,1.45-4.77,1.87-6.64,0.18-.8.1-1.06-0.36-1.17l-1.24-.26V17.29h4.56v0.39a2.11,2.11,0,0,0-1.95,1.63c-0.75,1.74-2.15,6-3.32,9.54H84.64l-3.4-8.27c-1,2.7-2.1,5.24-3.19,8.27H77.69Z"/><path class="light" d="M99.64,24.78c0,2.8.21,3.11,2.33,3.4v0.36H95.24V28.18c2.18-.29,2.39-0.6,2.39-3.4V15.45c0-2.8-.21-3.11-2.28-3.4V11.69h7.17a7.6,7.6,0,0,1,4.07.88,3.78,3.78,0,0,1,1.71,3.32c0,2.07-1.32,3.68-3.5,4.56,0.44,0.78,1.5,2.54,2.28,3.68a33.76,33.76,0,0,0,2.33,3,3,3,0,0,0,1.92,1.24l0,0.31c-0.31,0-.75,0-1.56-0.1a4.49,4.49,0,0,1-3.66-2.2c-1-1.48-1.95-3.14-2.72-4.43a1.81,1.81,0,0,0-1.87-1H99.64v3.76Zm0-4.28h1.93a4.69,4.69,0,0,0,3-.67,4.28,4.28,0,0,0,1.5-3.58,3.69,3.69,0,0,0-4-4,10.59,10.59,0,0,0-2.11.19c-0.16.05-.23,0.18-0.23,0.7v7.4Z"/><path class="light" d="M120.55,26.26a5.54,5.54,0,0,1-4,2.59c-3.19,0-5.16-2.49-5.16-5.5A6.81,6.81,0,0,1,113,19a5.43,5.43,0,0,1,3.94-2,3.85,3.85,0,0,1,3.68,3.66c0,0.65-.08.7-0.52,0.8s-3.58.34-6.85,0.44c-0.08,4,2.41,5.37,4.3,5.37A4.29,4.29,0,0,0,120.29,26Zm-7.16-5.16c1.56,0,3.09,0,4.64-.05,0.36,0,.47-0.16.47-0.8a2.37,2.37,0,0,0-2.36-2.52C114.89,17.73,113.65,18.87,113.39,21.1Z"/><path class="light" d="M129.25,20.17c-0.86-1.82-1.79-2.54-2.9-2.54a1.64,1.64,0,0,0-1.71,1.79c0,1.27,1.14,1.89,2.33,2.39,2,0.8,3.14,1.66,3.14,3.48,0,2.33-2.26,3.58-4.23,3.58a5.09,5.09,0,0,1-3-1,12,12,0,0,1-.31-2.88L123,25c0.47,1.45,1.82,3.24,3.32,3.24a1.84,1.84,0,0,0,2-2c0-1.27-.8-1.84-2.15-2.46C124.59,23,123,22.27,123,20.4S124.64,17,126.95,17a5.43,5.43,0,0,1,2.15.44,16.07,16.07,0,0,1,.54,2.59Z"/><path class="light" d="M141.33,26.26a5.54,5.54,0,0,1-4,2.59c-3.19,0-5.16-2.49-5.16-5.5A6.81,6.81,0,0,1,133.79,19a5.43,5.43,0,0,1,3.94-2,3.85,3.85,0,0,1,3.68,3.66c0,0.65-.08.7-0.52,0.8s-3.58.34-6.85,0.44c-0.08,4,2.41,5.37,4.3,5.37A4.29,4.29,0,0,0,141.07,26Zm-7.16-5.16c1.56,0,3.09,0,4.64-.05,0.36,0,.47-0.16.47-0.8a2.37,2.37,0,0,0-2.36-2.52C135.68,17.73,134.43,18.87,134.17,21.1Z"/><path class="light" d="M151.41,25.95c0,1,.34,1.45.73,1.45a2.36,2.36,0,0,0,1.12-.29l0.21,0.39L151,28.85a2,2,0,0,1-1.45-1.74c-1.06.73-2.46,1.74-3,1.74a3.08,3.08,0,0,1-3.14-3,2.6,2.6,0,0,1,2-2.54,37,37,0,0,0,4.15-1.76V20.5c0-1.56-.7-2.57-2-2.57a1.79,1.79,0,0,0-1.3.42,3,3,0,0,0-.88,1.87,0.55,0.55,0,0,1-.6.49,1.11,1.11,0,0,1-1.09-.91,1.61,1.61,0,0,1,.83-1.06,10.4,10.4,0,0,1,4-1.76,3.46,3.46,0,0,1,1.95.6,2.84,2.84,0,0,1,1,2.54v5.83Zm-1.89-3.79c-0.57.23-2.1,0.93-2.59,1.19a2,2,0,0,0-1.45,2,2,2,0,0,0,1.84,2.15,3.76,3.76,0,0,0,2.2-.91V22.16Z"/><path class="light" d="M158.1,26.21c0,1.43.13,1.69,2.13,2v0.36h-5.86V28.18c1.66-.29,1.79-0.54,1.79-2v-6c0-1.53-.05-1.69-1.71-1.89V18a19.8,19.8,0,0,0,3.66-1v2.8h0.05c0.6-1.11,1.82-2.75,3-2.75a1.41,1.41,0,0,1,1.37,1.22,1.36,1.36,0,0,1-.78,1.19,0.53,0.53,0,0,1-.6,0,1.61,1.61,0,0,0-1.11-.52c-0.6,0-1.24.44-2,1.79v5.58Z"/><path class="light" d="M172.25,17.68a0.67,0.67,0,0,1,.26.57,1.21,1.21,0,0,1-.86,1.14,0.56,0.56,0,0,1-.39-0.18,3.91,3.91,0,0,0-2.8-1.17c-1.5,0-3,1.17-3,4.2,0,4,2.83,5,4.07,5s1.79-.29,3.14-1.56l0.26,0.23c-1.09,1.71-2.67,2.9-4.15,2.9a5.28,5.28,0,0,1-5.34-5.32,6.16,6.16,0,0,1,2.39-5A7.25,7.25,0,0,1,170,17,4.18,4.18,0,0,1,172.25,17.68Z"/><path class="light" d="M177.35,18.84A6.29,6.29,0,0,1,181.09,17c2.18-.05,3.53,1.32,3.53,3.79v5.45c0,1.43.13,1.69,1.66,2v0.36h-5.37V28.18c1.63-.29,1.76-0.54,1.76-2V21.49c0-1.95-.67-3.19-2.67-3.19a3.88,3.88,0,0,0-2.64,1.14v6.77c0,1.43.13,1.69,1.71,2v0.36h-5.34V28.18c1.56-.29,1.69-0.54,1.69-2V13.27c0-1.56-.05-1.71-1.76-1.95V11c1.14-.23,2.83-0.65,3.71-0.91v8.71Z"/><path class="light" d="M205.17,15.94c-1-3-2.72-4.07-5.34-4.07-3.95,0-6,3.81-6,7.88,0,5,2.25,8.61,6.07,8.61,3,0,4.36-1.69,5.89-4.41L206.13,24c-0.34,1.12-.91,3.19-1.32,4.18a23.3,23.3,0,0,1-4.88.73,8.34,8.34,0,0,1-8.69-8.58,8.81,8.81,0,0,1,9.16-9.05,19.33,19.33,0,0,1,4.69.67c0.21,1.43.31,2.57,0.47,3.92Z"/><path class="light" d="M216.72,26.26a5.54,5.54,0,0,1-4,2.59c-3.19,0-5.16-2.49-5.16-5.5A6.81,6.81,0,0,1,209.17,19a5.43,5.43,0,0,1,3.94-2,3.85,3.85,0,0,1,3.68,3.66c0,0.65-.08.7-0.52,0.8s-3.58.34-6.85,0.44c-0.08,4,2.41,5.37,4.3,5.37A4.29,4.29,0,0,0,216.46,26Zm-7.16-5.16c1.56,0,3.09,0,4.64-.05,0.36,0,.47-0.16.47-0.8a2.37,2.37,0,0,0-2.36-2.52C211.07,17.73,209.82,18.87,209.56,21.1Z"/><path class="light" d="M222,19c0.52-.34,1.19-0.83,1.87-1.24A3.78,3.78,0,0,1,226,17a3.1,3.1,0,0,1,3.29,3.42v5.81c0,1.43.13,1.69,1.58,2v0.36h-5.42V28.18c1.76-.29,1.89-0.54,1.89-2v-5c0-1.5-.47-2.93-2.52-2.93a4.87,4.87,0,0,0-2.8,1.24v6.66c0,1.43.13,1.69,1.74,2v0.36H218.2V28.18c1.74-.29,1.87-0.54,1.87-2v-6c0-1.53-.05-1.69-1.71-1.89V18a19.8,19.8,0,0,0,3.66-1v2Z"/><path class="light" d="M235.32,25.12c0,2,1,2.46,1.71,2.46a4,4,0,0,0,1.66-.54l0.18,0.36-2.13,1.22a1.62,1.62,0,0,1-.7.23c-1.84,0-2.67-1.06-2.67-3V18.14h-1.89l-0.08-.26,0.8-.6h1.17v-1.5l1.61-2,0.34,0.13v3.35h3.09a0.6,0.6,0,0,1-.18.86h-2.9v7Z"/><path class="light" d="M249,26.26a5.54,5.54,0,0,1-4,2.59c-3.19,0-5.16-2.49-5.16-5.5A6.81,6.81,0,0,1,241.47,19a5.43,5.43,0,0,1,3.94-2,3.85,3.85,0,0,1,3.68,3.66c0,0.65-.08.7-0.52,0.8s-3.58.34-6.85,0.44c-0.08,4,2.41,5.37,4.3,5.37A4.29,4.29,0,0,0,248.76,26Zm-7.16-5.16c1.56,0,3.09,0,4.64-.05,0.36,0,.47-0.16.47-0.8a2.37,2.37,0,0,0-2.36-2.52C243.36,17.73,242.12,18.87,241.86,21.1Z"/><path class="light" d="M254.31,26.21c0,1.43.13,1.69,2.13,2v0.36h-5.86V28.18c1.66-.29,1.79-0.54,1.79-2v-6c0-1.53-.05-1.69-1.71-1.89V18a19.79,19.79,0,0,0,3.66-1v2.8h0.05c0.6-1.11,1.82-2.75,3-2.75a1.41,1.41,0,0,1,1.37,1.22,1.36,1.36,0,0,1-.78,1.19,0.53,0.53,0,0,1-.6,0,1.61,1.61,0,0,0-1.11-.52c-0.6,0-1.24.44-2,1.79v5.58Z"/><path class="light" d="M53,24.78c0,2.8.21,3.11,2.72,3.4v0.36H48.62V28.18c2.13-.29,2.33-0.6,2.33-3.4V15.45c0-2.8-.21-3.11-2.2-3.4V11.69h7.14a7.23,7.23,0,0,1,4.33,1.09,4.15,4.15,0,0,1,1.63,3.55c0,3.09-2.57,4.9-5.06,5.21a13.12,13.12,0,0,1-1.32.05L53,21v3.78Zm0-4.33a8.16,8.16,0,0,0,2.35.36c1.9,0,4.09-.93,4.09-4.41,0-3-1.58-4.2-4.23-4.2a9.89,9.89,0,0,0-2,.2c-0.16.05-.24,0.17-0.24,0.69v7.36Z"/>
</svg>
