<?xml version="1.0" encoding="UTF-8"?>
<svg id="prc-logo-primary-white" xmlns="http://www.w3.org/2000/svg" viewBox="0 0 483.97 72">
  <defs>
    <style>
      .cls-1 {
        fill: #fff;
      }
    </style>
  </defs>
  <g id="Logo">
    <g>
      <g>
        <path class="cls-1" d="m459.93,19.98c1.54,1.15,2.9,2.52,4.05,4.05l11.38-11.38c-1.24-1.46-2.6-2.81-4.06-4.06l-11.38,11.38Z"/>
        <path class="cls-1" d="m482.22,47.08l-24.18-10.01c-.21,2-1,3.82-2.2,5.3l24.17,10.01c.87-1.69,1.61-3.46,2.2-5.3Z"/>
        <path class="cls-1" d="m483.84,33.13h-16.09s0,0,0,0c.14.94.23,1.89.23,2.87s-.09,1.93-.23,2.87h16.09c.07-.95.12-1.9.12-2.87s-.05-1.92-.12-2.87Z"/>
        <path class="cls-1" d="m445.1,16.21c.94-.14,1.89-.23,2.87-.23s1.93.09,2.88.23h0V.12c-.95-.07-1.9-.12-2.87-.12s-1.92.05-2.87.12v16.09Z"/>
        <path class="cls-1" d="m415.91,52.38l24.17-10.01c-1.2-1.48-1.99-3.3-2.2-5.3l-24.18,10.02c.59,1.83,1.33,3.6,2.2,5.29Z"/>
        <path class="cls-1" d="m464.35,3.95c-1.69-.87-3.46-1.61-5.3-2.2l-10.02,24.18c2,.21,3.82,1,5.3,2.2l10.01-24.18Z"/>
        <path class="cls-1" d="m482.22,24.91c-.59-1.83-1.33-3.6-2.2-5.29l-24.18,10.01c1.2,1.48,1.99,3.3,2.2,5.29l24.18-10.01Z"/>
        <path class="cls-1" d="m459.05,70.25c1.84-.59,3.6-1.33,5.3-2.2l-10.01-24.18c-1.48,1.2-3.3,1.99-5.3,2.2l10.02,24.18Z"/>
        <path class="cls-1" d="m428.18,38.87c-.13-.94-.23-1.89-.23-2.87s.09-1.93.23-2.87h-16.09c-.07.95-.12,1.9-.12,2.87s.05,1.92.12,2.87h16.09Z"/>
        <path class="cls-1" d="m440.09,29.63l-24.17-10.01c-.87,1.69-1.61,3.46-2.2,5.3l24.18,10.01c.21-1.99,1-3.82,2.2-5.3Z"/>
        <path class="cls-1" d="m436,52.02h0c-1.54-1.15-2.9-2.52-4.06-4.06l-11.38,11.38c1.24,1.46,2.6,2.81,4.06,4.06l11.38-11.38Z"/>
        <path class="cls-1" d="m463.99,47.96c-1.15,1.54-2.52,2.91-4.06,4.06t0,0l11.38,11.38c1.46-1.24,2.81-2.6,4.06-4.06l-11.38-11.38Z"/>
        <path class="cls-1" d="m450.84,55.79s0,0,0,0c-.94.14-1.9.23-2.88.23s-1.93-.09-2.87-.23v16.09c.95.08,1.9.13,2.87.13s1.92-.05,2.87-.13v-16.09Z"/>
        <path class="cls-1" d="m436.88,70.25l10.02-24.18c-2-.21-3.82-1-5.3-2.2l-10.01,24.18c1.69.87,3.46,1.61,5.3,2.2Z"/>
        <path class="cls-1" d="m431.95,24.03s0,0,0,0c1.15-1.54,2.52-2.91,4.06-4.06l-11.38-11.38c-1.46,1.24-2.81,2.6-4.06,4.06l11.38,11.38Z"/>
        <path class="cls-1" d="m436.88,1.75c-1.84.59-3.6,1.33-5.3,2.2l10.01,24.18c1.48-1.2,3.3-1.99,5.3-2.2l-10.02-24.18Z"/>
      </g>
      <g>
        <path class="cls-1" d="m43.76,47.96c-2.83,4.04-6.41,5.05-7.72,5.05-6.21,0-10.04-4.84-10.04-10.7,0-2.78.91-6.01,3.08-8.53,1.82-2.17,4.74-3.89,7.67-3.89,3.88,0,7.16,3.63,7.16,7.12,0,1.26-.15,1.36-1.01,1.56-.71.15-6.96.66-13.32.86-.15,7.82,4.69,10.45,8.38,10.45,1.56,0,3.28-.71,5.3-2.42l.5.5Zm-13.93-10.04c3.03,0,6,0,9.03-.1.71,0,.91-.3.91-1.56,0-2.22-1.41-4.9-4.59-4.9-2.42,0-4.84,2.22-5.35,6.56Z"/>
        <path class="cls-1" d="m54.56,53.01l-6.41-18.27c-.96-2.67-1.06-2.98-3.58-3.48v-.76h10.14v.76l-2.07.55c-.96.25-1.21.71-.71,2.17l4.34,12.97h.1c1.87-4.84,3.79-10.3,6.11-16.2h.56l6.51,16.2h.1c1.21-3.99,2.83-9.29,3.63-12.92.35-1.56.2-2.07-.71-2.27l-2.42-.5v-.76h8.88v.76c-2.47.6-2.83.96-3.79,3.18-1.46,3.38-4.19,11.76-6.46,18.57h-.71l-6.61-16.1c-2.02,5.25-4.09,10.19-6.21,16.1h-.71Z"/>
        <path class="cls-1" d="m96.29,45.08c0,5.45.4,6.06,4.54,6.61v.71h-13.12v-.71c4.24-.56,4.64-1.16,4.64-6.61v-18.17c0-5.45-.4-6.06-4.44-6.61v-.71h13.94c3.18,0,6,.45,7.92,1.72,2.02,1.26,3.33,3.53,3.33,6.46,0,4.04-2.57,7.17-6.81,8.88.86,1.51,2.93,4.95,4.44,7.17,1.67,2.42,3.03,4.14,4.54,5.9,1.41,1.61,2.22,2.12,3.73,2.42l-.05.61c-.61,0-1.46-.05-3.03-.2-3.23-.35-5.05-1.36-7.11-4.29-2.02-2.88-3.79-6.11-5.3-8.63-.91-1.51-1.87-1.87-3.63-1.87h-3.6v7.32Zm0-8.33h3.75c2.57,0,4.34-.25,5.75-1.31,2.17-1.72,2.93-4.19,2.93-6.96,0-5.55-3.45-7.87-7.87-7.87-1.61,0-3.7.23-4.1.38-.3.1-.45.35-.45,1.36v14.41Z"/>
        <path class="cls-1" d="m135.96,47.96c-2.83,4.04-6.41,5.05-7.72,5.05-6.21,0-10.04-4.84-10.04-10.7,0-2.78.91-6.01,3.08-8.53,1.82-2.17,4.74-3.89,7.67-3.89,3.88,0,7.17,3.63,7.17,7.12,0,1.26-.15,1.36-1.01,1.56-.71.15-6.96.66-13.32.86-.15,7.82,4.69,10.45,8.38,10.45,1.56,0,3.28-.71,5.3-2.42l.5.5Zm-13.93-10.04c3.03,0,6,0,9.03-.1.71,0,.91-.3.91-1.56,0-2.22-1.41-4.9-4.59-4.9-2.42,0-4.84,2.22-5.35,6.56Z"/>
        <path class="cls-1" d="m151.9,36.1c-1.67-3.53-3.48-4.95-5.65-4.95s-3.33,1.41-3.33,3.48c0,2.47,2.22,3.68,4.54,4.64,3.84,1.56,6.11,3.23,6.11,6.76,0,4.54-4.39,6.96-8.23,6.96-2.47,0-4.79-1.06-5.75-1.87-.25-.76-.66-3.53-.61-5.6l.76-.1c.91,2.83,3.53,6.31,6.46,6.31,2.12,0,3.89-1.16,3.89-3.89,0-2.47-1.56-3.58-4.19-4.79-3.08-1.41-6.11-2.88-6.11-6.51s3.13-6.66,7.62-6.66c1.72,0,3.13.4,4.19.86.45,1.16.96,4.19,1.06,5.05l-.76.3Z"/>
        <path class="cls-1" d="m174.41,47.96c-2.83,4.04-6.41,5.05-7.72,5.05-6.21,0-10.04-4.84-10.04-10.7,0-2.78.91-6.01,3.08-8.53,1.82-2.17,4.74-3.89,7.67-3.89,3.88,0,7.16,3.63,7.16,7.12,0,1.26-.15,1.36-1.01,1.56-.71.15-6.96.66-13.32.86-.15,7.82,4.69,10.45,8.38,10.45,1.56,0,3.28-.71,5.3-2.42l.5.5Zm-13.93-10.04c3.03,0,6,0,9.03-.1.71,0,.91-.3.91-1.56,0-2.22-1.41-4.9-4.59-4.9-2.42,0-4.84,2.22-5.35,6.56Z"/>
        <path class="cls-1" d="m193.03,47.35c0,1.87.66,2.83,1.41,2.83.4,0,1.21-.05,2.17-.56l.4.76-4.84,2.62c-1.77-.3-2.52-2.02-2.83-3.38-2.07,1.41-4.79,3.38-5.85,3.38-3.73,0-6.11-3.03-6.11-5.8,0-2.32,1.21-3.94,3.89-4.95,2.62-1.01,6.36-2.42,8.07-3.43v-2.07c0-3.03-1.36-5-3.94-5-1.26,0-2.07.35-2.52.81-.61.51-1.21,1.31-1.72,3.63-.1.6-.51.96-1.16.96-.81,0-2.12-.71-2.12-1.77,0-.56.5-1.26,1.61-2.07,1.21-.91,4.24-2.78,7.72-3.43,1.31,0,2.88.45,3.79,1.16,1.82,1.41,2.02,3.13,2.02,4.95v11.35Zm-3.68-7.37c-1.11.45-4.09,1.82-5.05,2.32-1.97.96-2.83,1.97-2.83,3.84,0,2.83,1.92,4.19,3.58,4.19,1.21,0,2.88-.61,4.29-1.77v-8.58Z"/>
        <path class="cls-1" d="m205.03,47.86c0,2.78.25,3.28,4.14,3.84v.71h-11.4v-.71c3.23-.56,3.48-1.06,3.48-3.84v-11.66c0-2.98-.1-3.28-3.33-3.68v-.71c2.12-.4,4.59-1.01,7.12-2.02v5.45h.1c1.16-2.17,3.53-5.35,5.9-5.35,1.51,0,2.68,1.36,2.68,2.37,0,.81-.51,1.87-1.51,2.32-.56.25-.91.15-1.16-.05-.71-.61-1.26-1.01-2.17-1.01-1.16,0-2.42.86-3.84,3.48v10.85Z"/>
        <path class="cls-1" d="m231.58,31.26c.35.3.5.6.5,1.11,0,1.11-1.01,2.22-1.67,2.22-.2,0-.4-.05-.76-.35-1.97-1.77-3.63-2.27-5.45-2.27-2.93,0-5.9,2.27-5.9,8.18,0,7.82,5.5,9.79,7.92,9.79,2.22,0,3.48-.56,6.11-3.03l.5.45c-2.12,3.33-5.2,5.65-8.07,5.65-6.36,0-10.4-5.1-10.4-10.34,0-3.94,1.72-7.37,4.64-9.64,3.23-2.52,6.56-3.13,8.18-3.13,1.16,0,3.28.45,4.39,1.36Z"/>
        <path class="cls-1" d="m240.51,33.53c1.77-1.67,4.49-3.53,7.27-3.63,4.24-.1,6.86,2.57,6.86,7.37v10.6c0,2.78.25,3.28,3.23,3.84v.71h-10.45v-.71c3.18-.56,3.43-1.06,3.43-3.84v-9.18c0-3.79-1.31-6.21-5.2-6.21-2.02.1-3.83.86-5.15,2.22v13.17c0,2.78.25,3.28,3.33,3.84v.71h-10.4v-.71c3.03-.56,3.28-1.06,3.28-3.84v-25.18c0-3.03-.1-3.33-3.43-3.79v-.55c2.22-.45,5.5-1.26,7.22-1.77v16.96Z"/>
        <path class="cls-1" d="m293.64,27.88c-2.02-5.8-5.3-7.92-10.4-7.92-7.68,0-11.76,7.42-11.76,15.34,0,9.74,4.37,16.75,11.81,16.75,5.85,0,8.48-3.28,11.46-8.58l.76.15c-.66,2.17-1.77,6.21-2.57,8.12-1.41.35-5.96,1.41-9.49,1.41-11.42,0-16.91-8.68-16.91-16.7,0-10.4,7.69-17.61,17.82-17.61,4.34,0,7.72,1.01,9.13,1.31.4,2.77.6,5,.91,7.62l-.76.1Z"/>
        <path class="cls-1" d="m316.11,47.96c-2.83,4.04-6.41,5.05-7.72,5.05-6.21,0-10.04-4.84-10.04-10.7,0-2.78.91-6.01,3.08-8.53,1.82-2.17,4.74-3.89,7.67-3.89,3.89,0,7.17,3.63,7.17,7.12,0,1.26-.15,1.36-1.01,1.56-.71.15-6.96.66-13.32.86-.15,7.82,4.69,10.45,8.38,10.45,1.56,0,3.28-.71,5.3-2.42l.5.5Zm-13.93-10.04c3.03,0,6,0,9.03-.1.71,0,.91-.3.91-1.56,0-2.22-1.41-4.9-4.59-4.9-2.42,0-4.84,2.22-5.35,6.56Z"/>
        <path class="cls-1" d="m325.42,33.78c1.01-.66,2.32-1.61,3.63-2.42,1.51-.91,2.52-1.46,4.09-1.46,4.19,0,6.41,2.72,6.41,6.66v11.3c0,2.78.25,3.28,3.08,3.84v.71h-10.55v-.71c3.43-.56,3.68-1.06,3.68-3.84v-9.69c0-2.93-.91-5.7-4.9-5.7-1.87,0-3.79,1.11-5.45,2.42v12.97c0,2.78.25,3.28,3.38,3.84v.71h-10.8v-.71c3.38-.56,3.63-1.06,3.63-3.84v-11.66c0-2.98-.1-3.28-3.33-3.68v-.71c2.12-.4,4.59-1.01,7.12-2.02v3.99Z"/>
        <path class="cls-1" d="m350.3,45.74c0,3.99,1.92,4.79,3.33,4.79.81,0,2.17-.45,3.23-1.06l.35.71-4.14,2.37c-.66.35-1.11.45-1.36.45-3.58,0-5.2-2.07-5.2-5.9v-14.94h-3.68l-.15-.51,1.56-1.16h2.27v-2.93l3.13-3.84.66.25v6.51h6.01c.4.55.25,1.11-.35,1.67h-5.65v13.57Z"/>
        <path class="cls-1" d="m375.96,47.96c-2.83,4.04-6.41,5.05-7.72,5.05-6.21,0-10.04-4.84-10.04-10.7,0-2.78.91-6.01,3.08-8.53,1.82-2.17,4.74-3.89,7.67-3.89,3.88,0,7.16,3.63,7.16,7.12,0,1.26-.15,1.36-1.01,1.56-.71.15-6.96.66-13.32.86-.15,7.82,4.69,10.45,8.38,10.45,1.56,0,3.28-.71,5.3-2.42l.5.5Zm-13.93-10.04c3.03,0,6,0,9.03-.1.71,0,.91-.3.91-1.56,0-2.22-1.41-4.9-4.59-4.9-2.42,0-4.84,2.22-5.35,6.56Z"/>
        <path class="cls-1" d="m385.27,47.86c0,2.78.25,3.28,4.14,3.84v.71h-11.4v-.71c3.23-.56,3.48-1.06,3.48-3.84v-11.66c0-2.98-.1-3.28-3.33-3.68v-.71c2.12-.4,4.59-1.01,7.12-2.02v5.45h.1c1.16-2.17,3.53-5.35,5.9-5.35,1.51,0,2.68,1.36,2.68,2.37,0,.81-.5,1.87-1.51,2.32-.56.25-.91.15-1.16-.05-.71-.61-1.26-1.01-2.17-1.01-1.16,0-2.42.86-3.84,3.48v10.85Z"/>
        <path class="cls-1" d="m8.58,45.08c0,5.45.4,6.06,5.3,6.61v.71H0v-.71c4.14-.56,4.54-1.16,4.54-6.61v-18.17c0-5.45-.4-6.06-4.29-6.61v-.71h13.89c3.38,0,6.31.56,8.43,2.12,1.97,1.41,3.18,3.73,3.18,6.91,0,6.01-5,9.54-9.84,10.14-.81.1-2.16.1-2.56.1l-4.77-1.16v7.36Zm0-8.42c.66.25,2.7.7,4.57.7,3.71,0,7.97-1.82,7.97-8.58,0-5.8-3.08-8.18-8.23-8.18-1.36,0-3.43.24-3.83.39-.3.1-.47.34-.47,1.35v14.31Z"/>
      </g>
    </g>
  </g>
</svg>
