<svg id="PRC-Symbol" xmlns="http://www.w3.org/2000/svg" viewBox="0 0 220.26 220.27">
	<title>Pew Research Center Wordmark</title>
	<style>
		path {
			fill: #000;
		}
		@media ( prefers-color-scheme: dark ) {
			path {
				fill: #FFF;
			}
		}
	</style>
	<path d="M158.27,146.09l34.33,34.32a108.19,108.19,0,0,0,14-21l-72.81-30.17a30.32,30.32,0,0,0,6.59-15.92l72.8,30.16a107.75,107.75,0,0,0,4.92-24.75H169.6a59.92,59.92,0,0,0,.69-8.63,58.42,58.42,0,0,0-.7-8.63,0,0,0,0,1,0,0h48.53a107.86,107.86,0,0,0-4.92-24.75l-72.8,30.16A30.33,30.33,0,0,0,133.81,91l72.82-30.17a108.12,108.12,0,0,0-14-21L158.27,74.18A60.39,60.39,0,0,0,146.09,62l34.32-34.32a108.65,108.65,0,0,0-21-14L129.27,86.46a30.26,30.26,0,0,0-15.93-6.61L143.5,7.06a107.14,107.14,0,0,0-24.74-4.92V50.67h0a54.31,54.31,0,0,0-17.26,0V2.13A108.29,108.29,0,0,0,76.76,7.05l30.16,72.8A30.3,30.3,0,0,0,91,86.46L60.84,13.64a108.34,108.34,0,0,0-21,14L74.18,62A60.54,60.54,0,0,0,62,74.19s0,0,0,0L27.67,39.86a108.12,108.12,0,0,0-14,21L86.45,91a30.33,30.33,0,0,0-6.6,15.92L7.06,76.76a107.87,107.87,0,0,0-4.93,24.75H50.67a54.31,54.31,0,0,0,0,17.26H2.13A107.76,107.76,0,0,0,7.06,143.5l72.79-30.16a30.4,30.4,0,0,0,6.6,15.93L13.64,159.43a108.6,108.6,0,0,0,14,21L62,146.09a60.74,60.74,0,0,0,12.2,12.19h0L39.86,192.6a108.3,108.3,0,0,0,21,14L91,133.81a30.29,30.29,0,0,0,15.92,6.6l-30.16,72.8a107.22,107.22,0,0,0,24.75,4.92V169.59a53.55,53.55,0,0,0,17.26,0h0v48.54a107.67,107.67,0,0,0,24.74-4.92l-30.16-72.8a30.18,30.18,0,0,0,15.93-6.61l30.16,72.82a108.6,108.6,0,0,0,21-14l-34.32-34.32h0A60.18,60.18,0,0,0,158.27,146.09Z"/>
</svg>
