<svg xmlns="http://www.w3.org/2000/svg" viewBox="0 0 512 512"><path d="M256,8C119.0334,8,8,119.0334,8,256S119.0334,504,256,504,504,392.9666,504,256C503.5914,119.203,392.797,8.4085,256,8Zm0,468.1C134.4421,476.1,35.9,377.5579,35.9,256S134.4421,35.9,256,35.9,476.1,134.4421,476.1,256C475.6411,377.3673,377.3673,475.6411,256,476.1Zm0-350.3a14.632,14.632,0,0,1,15.5,15.5v99.2H373.8A14.632,14.632,0,0,1,389.3,256a16.616,16.616,0,0,1-15.5,15.5H268.4V373.8a15.5,15.5,0,1,1-31,0V271.5H138.2A14.198,14.198,0,0,1,125.8,256a14.198,14.198,0,0,1,12.4-15.5H240.5V138.2A14.198,14.198,0,0,1,256,125.8Z"/></svg>