<?xml version="1.0" encoding="UTF-8"?><svg xmlns="http://www.w3.org/2000/svg" viewBox="0 0 168 32"><defs><style>.d{fill:#fff;}.e{fill-rule:evenodd;}</style></defs><g id="a"/><g id="b"/><g id="c"><g><path d="M23.13,21.33l5.09,5.08c.81-.95,1.51-1.99,2.08-3.11l-10.79-4.47c.55-.68,.89-1.49,.98-2.36l10.78,4.47c.39-1.19,.63-2.42,.73-3.67h-7.19c.06-.42,.1-.85,.1-1.28,0-.43-.04-.86-.1-1.28h7.19c-.1-1.24-.34-2.48-.73-3.66l-10.78,4.47c-.09-.86-.43-1.68-.98-2.36l10.79-4.47c-.57-1.11-1.27-2.16-2.08-3.11l-5.09,5.08c-.51-.68-1.12-1.29-1.81-1.81l5.08-5.08c-.95-.81-1.99-1.51-3.11-2.08l-4.47,10.79c-.68-.55-1.49-.89-2.36-.98L20.95,.73C19.76,.34,18.53,.1,17.28,0V7.19h0c-.85-.14-1.71-.14-2.56,0V0c-1.25,.1-2.48,.34-3.67,.73l4.47,10.78c-.86,.09-1.68,.43-2.36,.98L8.7,1.71c-1.11,.57-2.16,1.27-3.11,2.08l5.08,5.08c-.69,.51-1.29,1.12-1.81,1.81h0L3.78,5.59c-.81,.95-1.51,1.99-2.08,3.11l10.79,4.47c-.55,.67-.89,1.49-.98,2.36L.73,11.06C.35,12.25,.1,13.48,0,14.72H7.19c-.14,.85-.14,1.71,0,2.56H0c.1,1.25,.34,2.48,.73,3.67l10.78-4.47c.09,.86,.43,1.68,.98,2.36L1.71,23.3c.57,1.11,1.27,2.16,2.08,3.11l5.09-5.08c.51,.69,1.12,1.29,1.81,1.81h0l-5.08,5.08c.95,.81,1.99,1.51,3.11,2.08l4.47-10.79c.68,.55,1.49,.89,2.36,.98l-4.47,10.78c1.19,.39,2.42,.63,3.67,.73v-7.19c.85,.14,1.71,.14,2.56,0h0v7.19c1.25-.1,2.48-.34,3.67-.73l-4.47-10.78c.86-.09,1.68-.43,2.36-.98l4.47,10.79c1.11-.57,2.16-1.27,3.11-2.08l-5.08-5.08h0c.69-.51,1.29-1.12,1.81-1.81h0Z"/><path class="e" d="M38,32V0h1V32h-1Z"/><g><path d="M77,0H45V32h32V0Z"/><path class="d" d="M62.83,10.51v3.66h7.77v3.66h-7.77v7.31l-5.91-9.14,5.91-9.14h8.69v3.66h-8.69Zm-10.06,7.57v7.06h4.57l-4.57-7.06Zm4.57-11.22h-4.57v7.06l4.57-7.06h0Z"/></g><g><path d="M154.7,22.02v1.68h-3.11v2.56h3.74v1.74h-5.85v-10.08h5.62v1.73h-3.5v2.36h3.11Z"/><path d="M146.07,17.92h2.12l-2.96,10.08h-2.65l-3.03-10.08h2.19l2.19,8.07h.03l2.12-8.07h0Z"/><path d="M137.67,19.34v7.25h.98v1.42h-4.06v-1.42h.98v-7.25h-.97v-1.42h4.05v1.42h-.98Z"/><path d="M129.03,28v-8.34h-2.52v-1.73h7.15v1.73h-2.5v8.34h-2.13Z"/><path d="M121.33,17.92h2.67l3.1,10.08h-2.19l-.69-2.33h-3.13l-.67,2.33h-2.13l3.03-10.08Zm2.46,6.07l-1.13-4.05h-.04l-1.12,4.05h2.3Z"/><path d="M116.41,19.34v7.25h.98v1.42h-4.07v-1.42h.98v-7.25h-.97v-1.42h4.05v1.42h-.97Z"/><path d="M107.77,28v-8.34h-2.52v-1.73h7.15v1.73h-2.5v8.34h-2.13Z"/><path d="M103.34,19.34v7.25h.98v1.42h-4.07v-1.42h.98v-7.25h-.97v-1.42h4.05v1.42h-.97Z"/><path d="M98.42,28h-2.35l-3.18-6.75h-.04v6.75h-1.93v-10.08h2.5l3.04,6.79h.04v-6.79h1.92v10.08Z"/><path d="M88.09,19.34v7.25h.98v1.42h-4.07v-1.42h.98v-7.25h-.97v-1.42h4.05v1.42h-.97Z"/><path d="M163.37,14.26V5.92h-2.52v-1.73h7.15v1.73h-2.5V14.26h-2.13Z"/><path d="M159.55,4.19V14.26h-2.13v-4.13h-3.09v4.13h-2.12V4.19h2.12v4.17h3.09V4.19h2.13Z"/><path d="M146.74,10.76v-1.57h3.47v5.23h-1.36l-.23-1.1c-.52,.71-1.34,1.1-2.27,1.1-2.41,0-3.69-1.7-3.69-5.02,0-3.78,1.66-5.41,4.13-5.41,2.13,0,3.26,1.31,3.26,3.68l-2.08,.15c-.03-1.69-.56-2.14-1.34-2.14-1.02,0-1.73,.87-1.73,3.63,0,2.54,.65,3.45,1.77,3.45,.88,0,1.58-.63,1.62-2h-1.56Z"/><path d="M140.28,5.6v7.25h.98v1.42h-4.07v-1.42h.98V5.6h-.97v-1.42h4.05v1.42h-.97Z"/><path d="M135.36,14.26h-2.35l-3.18-6.75h-.04v6.75h-1.93V4.19h2.5l3.04,6.79h.04V4.19h1.92V14.26Z"/><path d="M120.83,4.19v4.2l3.25-4.2h2.35l-3.29,4.12,3.43,5.96h-2.42l-2.45-4.16-.87,1.09v3.08h-2.12V4.19h2.12Z"/><path d="M117.12,11.32h-3.58v-1.58h3.58v1.58Z"/><path d="M110.77,14.26h-2.68l-1.36-6.78h-.05l-1.33,6.78h-2.68l-2.13-10.08h2.19l1.29,8.06h.06l1.64-8.06h2.07l1.66,8.06h.05l1.3-8.06h2.12l-2.13,10.08h0Z"/><path d="M98.95,8.28v1.68h-3.11v2.56h3.74v1.74h-5.85V4.19h5.62v1.73h-3.5v2.36h3.11Z"/><path d="M87.52,10.65v3.61h-2.12V4.19h3.39c2.39,0,3.32,1.16,3.32,3.01,0,1.57-.54,3.46-3.69,3.46h-.9Zm0-1.64h.68c1.16,0,1.77-.42,1.77-1.66,0-.98-.42-1.49-1.47-1.49h-.98v3.15Z"/></g></g></g></svg>