<?xml version="1.0" encoding="UTF-8"?>
<svg id="prc-symbol-white" xmlns="http://www.w3.org/2000/svg" viewBox="0 0 216 216" width="36" height="36">
  <defs>
    <style>
      .cls-1 {
        fill: #fff;
      }
    </style>
  </defs>
  <g id="Logo">
    <g>
      <path class="cls-1" d="m143.89,59.94c4.62,3.45,8.71,7.55,12.16,12.16l34.13-34.13c-3.73-4.37-7.8-8.44-12.17-12.17l-34.13,34.14Z"/>
      <path class="cls-1" d="m210.76,141.25l-72.53-30.04c-.63,5.99-3,11.46-6.59,15.89l72.52,30.04c2.6-5.08,4.82-10.38,6.6-15.89Z"/>
      <path class="cls-1" d="m215.63,99.39h-48.26s0,0,0-.01c.41,2.82.69,5.68.69,8.62s-.28,5.79-.68,8.61h48.26c.22-2.84.37-5.71.37-8.61s-.15-5.76-.37-8.61Z"/>
      <path class="cls-1" d="m99.39,48.64c2.82-.41,5.67-.69,8.6-.69s5.8.28,8.63.69h-.01V.37c-2.84-.22-5.71-.37-8.61-.37s-5.76.15-8.6.37v48.27Z"/>
      <path class="cls-1" d="m11.84,157.14l72.52-30.04c-3.59-4.44-5.96-9.91-6.59-15.9L5.24,141.25c1.78,5.5,4,10.81,6.6,15.88Z"/>
      <path class="cls-1" d="m157.14,11.84c-5.08-2.6-10.38-4.82-15.89-6.6l-30.05,72.53c5.99.62,11.46,3,15.9,6.59l30.04-72.53Z"/>
      <path class="cls-1" d="m210.76,74.74c-1.78-5.5-4-10.81-6.6-15.88l-72.53,30.04c3.59,4.43,5.96,9.9,6.59,15.88l72.53-30.04Z"/>
      <path class="cls-1" d="m141.25,210.75c5.51-1.78,10.81-4,15.89-6.59l-30.04-72.53c-4.44,3.6-9.91,5.97-15.9,6.6l30.05,72.53Z"/>
      <path class="cls-1" d="m48.63,116.6c-.4-2.82-.68-5.68-.68-8.61s.28-5.79.68-8.61H.37c-.22,2.84-.37,5.71-.37,8.61s.15,5.76.37,8.61h48.26Z"/>
      <path class="cls-1" d="m84.36,88.89L11.84,58.85c-2.6,5.08-4.82,10.38-6.6,15.89l72.53,30.04c.63-5.98,3.01-11.45,6.59-15.89Z"/>
      <path class="cls-1" d="m72.11,156.06h0c-4.62-3.45-8.71-7.55-12.17-12.17l-34.14,34.13c3.73,4.37,7.8,8.44,12.17,12.17l34.13-34.13Z"/>
      <path class="cls-1" d="m156.05,143.89c-3.45,4.62-7.55,8.72-12.17,12.18t.01,0l34.13,34.13c4.37-3.73,8.44-7.79,12.17-12.17l-34.13-34.13Z"/>
      <path class="cls-1" d="m116.61,167.36s0,0,.01,0c-2.82.41-5.69.69-8.63.69s-5.78-.28-8.6-.68v48.26c2.84.23,5.7.38,8.6.38s5.77-.15,8.61-.38v-48.26Z"/>
      <path class="cls-1" d="m74.75,210.76l30.05-72.53c-5.99-.63-11.46-3.01-15.9-6.59l-30.04,72.53c5.08,2.6,10.38,4.82,15.89,6.6Z"/>
      <path class="cls-1" d="m59.94,72.1s-.01,0-.01.01c3.45-4.62,7.55-8.72,12.17-12.17L37.98,25.81c-4.37,3.73-8.44,7.79-12.17,12.17l34.13,34.13Z"/>
      <path class="cls-1" d="m74.75,5.24c-5.51,1.78-10.81,4-15.89,6.59l30.04,72.53c4.44-3.6,9.91-5.97,15.9-6.59L74.75,5.24Z"/>
    </g>
  </g>
</svg>
